<svg width="98" height="90" viewBox="0 0 98 90" fill="none" xmlns="http://www.w3.org/2000/svg">
<path d="M15.332 89.8926C10.2214 89.8926 6.38021 88.623 3.80859 86.084C1.26953 83.5775 0 79.8014 0 74.7559V15.1367C0 10.0911 1.26953 6.3151 3.80859 3.80859C6.38021 1.26953 10.2214 0 15.332 0H82.0312C87.1419 0 90.9668 1.26953 93.5059 3.80859C96.0449 6.3151 97.3145 10.0911 97.3145 15.1367V74.7559C97.3145 79.8014 96.0449 83.5775 93.5059 86.084C90.9668 88.623 87.1419 89.8926 82.0312 89.8926H15.332ZM14.5996 82.0312H82.666C84.847 82.0312 86.5234 81.4453 87.6953 80.2734C88.8672 79.1341 89.4531 77.4414 89.4531 75.1953V29.1504C89.4531 26.9043 88.8672 25.2116 87.6953 24.0723C86.5234 22.9004 84.847 22.3145 82.666 22.3145H14.5996C12.4512 22.3145 10.791 22.9004 9.61914 24.0723C8.44727 25.2116 7.86133 26.9043 7.86133 29.1504V75.1953C7.86133 77.4414 8.44727 79.1341 9.61914 80.2734C10.791 81.4453 12.4512 82.0312 14.5996 82.0312ZM39.1602 39.8926C38.3138 39.8926 37.7116 39.7298 37.3535 39.4043C37.028 39.0788 36.8652 38.4928 36.8652 37.6465V34.7656C36.8652 33.9193 37.028 33.3496 37.3535 33.0566C37.7116 32.7311 38.3138 32.5684 39.1602 32.5684H42.041C42.8874 32.5684 43.4733 32.7311 43.7988 33.0566C44.1569 33.3496 44.3359 33.9193 44.3359 34.7656V37.6465C44.3359 38.4928 44.1569 39.0788 43.7988 39.4043C43.4733 39.7298 42.8874 39.8926 42.041 39.8926H39.1602ZM55.3711 39.8926C54.5247 39.8926 53.9388 39.7298 53.6133 39.4043C53.2878 39.0788 53.125 38.4928 53.125 37.6465V34.7656C53.125 33.9193 53.2878 33.3496 53.6133 33.0566C53.9388 32.7311 54.5247 32.5684 55.3711 32.5684H58.252C59.1309 32.5684 59.7331 32.7311 60.0586 33.0566C60.3841 33.3496 60.5469 33.9193 60.5469 34.7656V37.6465C60.5469 38.4928 60.3841 39.0788 60.0586 39.4043C59.7331 39.7298 59.1309 39.8926 58.252 39.8926H55.3711ZM71.6309 39.8926C70.752 39.8926 70.1497 39.7298 69.8242 39.4043C69.4987 39.0788 69.3359 38.4928 69.3359 37.6465V34.7656C69.3359 33.9193 69.4987 33.3496 69.8242 33.0566C70.1497 32.7311 70.752 32.5684 71.6309 32.5684H74.4629C75.3418 32.5684 75.944 32.7311 76.2695 33.0566C76.5951 33.3496 76.7578 33.9193 76.7578 34.7656V37.6465C76.7578 38.4928 76.5951 39.0788 76.2695 39.4043C75.944 39.7298 75.3418 39.8926 74.4629 39.8926H71.6309ZM22.9492 55.8594C22.0703 55.8594 21.4681 55.6966 21.1426 55.3711C20.8171 55.0456 20.6543 54.4596 20.6543 53.6133V50.7812C20.6543 49.9023 20.8171 49.3164 21.1426 49.0234C21.4681 48.6979 22.0703 48.5352 22.9492 48.5352H25.8301C26.6764 48.5352 27.2624 48.6979 27.5879 49.0234C27.9134 49.3164 28.0762 49.9023 28.0762 50.7812V53.6133C28.0762 54.4596 27.9134 55.0456 27.5879 55.3711C27.2624 55.6966 26.6764 55.8594 25.8301 55.8594H22.9492ZM39.1602 55.8594C38.3138 55.8594 37.7116 55.6966 37.3535 55.3711C37.028 55.0456 36.8652 54.4596 36.8652 53.6133V50.7812C36.8652 49.9023 37.028 49.3164 37.3535 49.0234C37.7116 48.6979 38.3138 48.5352 39.1602 48.5352H42.041C42.8874 48.5352 43.4733 48.6979 43.7988 49.0234C44.1569 49.3164 44.3359 49.9023 44.3359 50.7812V53.6133C44.3359 54.4596 44.1569 55.0456 43.7988 55.3711C43.4733 55.6966 42.8874 55.8594 42.041 55.8594H39.1602ZM55.3711 55.8594C54.5247 55.8594 53.9388 55.6966 53.6133 55.3711C53.2878 55.0456 53.125 54.4596 53.125 53.6133V50.7812C53.125 49.9023 53.2878 49.3164 53.6133 49.0234C53.9388 48.6979 54.5247 48.5352 55.3711 48.5352H58.252C59.1309 48.5352 59.7331 48.6979 60.0586 49.0234C60.3841 49.3164 60.5469 49.9023 60.5469 50.7812V53.6133C60.5469 54.4596 60.3841 55.0456 60.0586 55.3711C59.7331 55.6966 59.1309 55.8594 58.252 55.8594H55.3711ZM71.6309 55.8594C70.752 55.8594 70.1497 55.6966 69.8242 55.3711C69.4987 55.0456 69.3359 54.4596 69.3359 53.6133V50.7812C69.3359 49.9023 69.4987 49.3164 69.8242 49.0234C70.1497 48.6979 70.752 48.5352 71.6309 48.5352H74.4629C75.3418 48.5352 75.944 48.6979 76.2695 49.0234C76.5951 49.3164 76.7578 49.9023 76.7578 50.7812V53.6133C76.7578 54.4596 76.5951 55.0456 76.2695 55.3711C75.944 55.6966 75.3418 55.8594 74.4629 55.8594H71.6309ZM22.9492 71.8262C22.0703 71.8262 21.4681 71.6797 21.1426 71.3867C20.8171 71.0612 20.6543 70.459 20.6543 69.5801V66.748C20.6543 65.8691 20.8171 65.2832 21.1426 64.9902C21.4681 64.6647 22.0703 64.502 22.9492 64.502H25.8301C26.6764 64.502 27.2624 64.6647 27.5879 64.9902C27.9134 65.2832 28.0762 65.8691 28.0762 66.748V69.5801C28.0762 70.459 27.9134 71.0612 27.5879 71.3867C27.2624 71.6797 26.6764 71.8262 25.8301 71.8262H22.9492ZM39.1602 71.8262C38.3138 71.8262 37.7116 71.6797 37.3535 71.3867C37.028 71.0612 36.8652 70.459 36.8652 69.5801V66.748C36.8652 65.8691 37.028 65.2832 37.3535 64.9902C37.7116 64.6647 38.3138 64.502 39.1602 64.502H42.041C42.8874 64.502 43.4733 64.6647 43.7988 64.9902C44.1569 65.2832 44.3359 65.8691 44.3359 66.748V69.5801C44.3359 70.459 44.1569 71.0612 43.7988 71.3867C43.4733 71.6797 42.8874 71.8262 42.041 71.8262H39.1602ZM55.3711 71.8262C54.5247 71.8262 53.9388 71.6797 53.6133 71.3867C53.2878 71.0612 53.125 70.459 53.125 69.5801V66.748C53.125 65.8691 53.2878 65.2832 53.6133 64.9902C53.9388 64.6647 54.5247 64.502 55.3711 64.502H58.252C59.1309 64.502 59.7331 64.6647 60.0586 64.9902C60.3841 65.2832 60.5469 65.8691 60.5469 66.748V69.5801C60.5469 70.459 60.3841 71.0612 60.0586 71.3867C59.7331 71.6797 59.1309 71.8262 58.252 71.8262H55.3711Z" fill="#8177D8"/>
</svg>
