<svg width="107" height="106" viewBox="0 0 107 106" fill="none" xmlns="http://www.w3.org/2000/svg">
<path d="M48.0842 105.931C46.0664 105.931 44.309 105.362 42.812 104.223C41.315 103.084 40.3549 101.538 39.9318 99.5852L37.9304 90.9447L36.6123 90.5053L29.1434 95.0941C27.4511 96.168 25.6611 96.5748 23.7736 96.3145C21.9185 96.0867 20.2751 95.2568 18.8431 93.8248L12.0088 87.0393C10.5443 85.5748 9.69814 83.9151 9.47033 82.0601C9.24252 80.205 9.6656 78.4314 10.7396 76.7391L15.4259 69.2701L14.9866 68.0497L6.34608 66.0482C4.42596 65.5926 2.88011 64.6163 1.70851 63.1193C0.569459 61.6222 -6.70068e-05 59.8811 -6.70068e-05 57.8959V48.279C-6.70068e-05 46.2938 0.569459 44.569 1.70851 43.1045C2.84756 41.6075 4.39342 40.6149 6.34608 40.1267L14.889 38.0764L15.3771 36.7583L10.6907 29.2894C9.64933 27.6297 9.22625 25.8723 9.42152 24.0172C9.64933 22.1622 10.4955 20.5025 11.96 19.038L18.7943 12.2036C20.2262 10.8042 21.8697 9.97436 23.7248 9.71401C25.5798 9.45365 27.3534 9.84419 29.0457 10.8856L36.5635 15.5232L37.9304 14.9862L39.9318 6.34567C40.3549 4.42555 41.315 2.89597 42.812 1.75692C44.309 0.585323 46.0664 -0.000475053 48.0842 -0.000475053H57.9939C60.0117 -0.000475053 61.7528 0.585323 63.2173 1.75692C64.6818 2.89597 65.6419 4.42555 66.0975 6.34567L68.0989 14.9862L69.4658 15.5232L76.9836 10.8856C78.6759 9.84419 80.4495 9.45365 82.3045 9.71401C84.1596 9.97436 85.8031 10.8042 87.235 12.2036L94.0693 19.038C95.5338 20.5025 96.3637 22.1622 96.559 24.0172C96.7868 25.8723 96.38 27.6297 95.3386 29.2894L90.6522 36.7583L91.1892 38.0764L99.6832 40.1267C101.603 40.5823 103.133 41.5586 104.272 43.0557C105.444 44.5527 106.029 46.2938 106.029 48.279V57.8959C106.029 59.8811 105.444 61.6222 104.272 63.1193C103.133 64.6163 101.603 65.5926 99.6832 66.0482L91.0915 68.0497L90.6034 69.2701L95.2897 76.7391C96.3312 78.4314 96.738 80.205 96.5102 82.0601C96.3149 83.9151 95.485 85.5748 94.0205 87.0393L87.1862 93.8248C85.7542 95.2568 84.0945 96.0867 82.2069 96.3145C80.3519 96.5748 78.5782 96.168 76.8859 95.0941L69.3682 90.5053L68.0989 90.9447L66.0975 99.5852C65.6419 101.538 64.6818 103.084 63.2173 104.223C61.7528 105.362 60.0117 105.931 57.9939 105.931H48.0842ZM49.3046 97.0955H56.7735C57.5546 97.0955 57.9939 96.7213 58.0916 95.9728L61.0206 83.9639C62.6478 83.6059 64.1611 83.134 65.5605 82.5482C66.9599 81.9299 68.2617 81.2465 69.4658 80.4979L79.9614 86.9417C80.6448 87.3973 81.2469 87.3322 81.7676 86.7464L86.9421 81.5231C87.4628 81.0675 87.5116 80.4817 87.0886 79.7657L80.6448 69.319C81.3282 68.1474 81.9628 66.8456 82.5486 65.4136C83.167 63.9817 83.6551 62.5009 84.0131 60.9713L96.0708 58.0912C96.8193 57.961 97.1936 57.5054 97.1936 56.7243V49.4018C97.1936 48.6533 96.8193 48.1977 96.0708 48.035L84.0619 45.1548C83.6714 43.5276 83.1507 41.9817 82.4998 40.5172C81.8815 39.0527 81.2794 37.7998 80.6936 36.7583L87.1374 26.2628C87.593 25.5794 87.5442 24.961 86.9909 24.4078L81.8164 19.3309C81.2631 18.8101 80.6448 18.7288 79.9614 19.0868L69.4658 25.4817C68.2617 24.7983 66.9436 24.1637 65.5117 23.5779C64.1123 22.9596 62.6152 22.4551 61.0206 22.0646L58.0916 9.95809C57.9939 9.20957 57.5546 8.83531 56.7735 8.83531H49.3046C48.491 8.83531 48.0191 9.20957 47.8889 9.95809L45.0576 21.9669C43.4954 22.3575 41.9496 22.8782 40.42 23.5291C38.923 24.1474 37.6212 24.782 36.5147 25.4329L26.0191 19.0868C25.3682 18.7288 24.7662 18.7939 24.2129 19.282L18.9896 24.4078C18.4688 24.961 18.42 25.5794 18.8431 26.2628L25.2869 36.7583C24.7336 37.7998 24.1316 39.0527 23.4807 40.5172C22.8298 41.9817 22.3253 43.5276 21.9674 45.1548L9.9585 48.035C9.20998 48.1977 8.83572 48.6533 8.83572 49.4018V56.7243C8.83572 57.5054 9.20998 57.961 9.9585 58.0912L21.9674 60.9225C22.3579 62.4846 22.8623 63.9817 23.4807 65.4136C24.099 66.813 24.7336 68.1148 25.3845 69.319L18.8919 79.8145C18.5014 80.4979 18.5502 81.0837 19.0384 81.5719L24.2617 86.7464C24.7824 87.3322 25.3682 87.4136 26.0191 86.9905L36.5635 80.4979C37.7676 81.2465 39.0857 81.9299 40.5176 82.5482C41.9821 83.134 43.4792 83.6059 45.0087 83.9639L47.8889 95.9728C48.0191 96.7213 48.491 97.0955 49.3046 97.0955ZM53.0147 71.4669C49.5975 71.4669 46.4732 70.637 43.6419 68.9772C40.8431 67.3175 38.6138 65.0882 36.954 62.2894C35.3268 59.458 34.5132 56.35 34.5132 52.9654C34.5132 49.5483 35.3268 46.4403 36.954 43.6415C38.6138 40.8427 40.8431 38.6134 43.6419 36.9536C46.4732 35.2939 49.5975 34.464 53.0147 34.464C56.4318 34.464 59.5398 35.2939 62.3386 36.9536C65.1374 38.6134 67.3667 40.8427 69.0265 43.6415C70.6862 46.4403 71.5161 49.5483 71.5161 52.9654C71.5161 56.35 70.6862 59.458 69.0265 62.2894C67.3667 65.0882 65.1374 67.3175 62.3386 68.9772C59.5398 70.637 56.4318 71.4669 53.0147 71.4669ZM53.0147 63.0704C54.8697 63.0704 56.562 62.6148 58.0916 61.7036C59.6211 60.7923 60.8416 59.5719 61.7528 58.0423C62.664 56.5128 63.1197 54.8205 63.1197 52.9654C63.1197 51.0779 62.664 49.3855 61.7528 47.8885C60.8416 46.3589 59.6211 45.1385 58.0916 44.2273C56.562 43.316 54.8697 42.8604 53.0147 42.8604C51.1271 42.8604 49.4185 43.316 47.8889 44.2273C46.3919 45.1385 45.1877 46.3589 44.2765 47.8885C43.3653 49.3855 42.9096 51.0779 42.9096 52.9654C42.9096 54.8205 43.3653 56.5128 44.2765 58.0423C45.1877 59.5719 46.3919 60.7923 47.8889 61.7036C49.4185 62.6148 51.1271 63.0704 53.0147 63.0704Z" fill="#59468F"/>
</svg>
