<svg width="46" height="35" viewBox="0 0 46 35" fill="none" xmlns="http://www.w3.org/2000/svg">
<path d="M7.62357 28.4991H38.082L37.5476 30.6366C37.2033 32.0378 36.6333 33.0887 35.8377 33.7893C35.0421 34.4899 33.9081 34.8402 32.4356 34.8402H13.2521C11.7797 34.8402 10.6457 34.4839 9.85006 33.7715C9.06633 33.0709 8.50229 32.0259 8.15793 30.6366L7.62357 28.4991ZM7.03577 26.0589L3.59807 12.0765L5.30801 11.6312L13.359 17.5091C13.6559 17.7229 13.8993 17.806 14.0893 17.7585C14.2912 17.6991 14.4693 17.5566 14.6237 17.331L22.4253 5.55733L23.2803 5.59296L31.0107 17.2776C31.1769 17.527 31.3669 17.6813 31.5806 17.7407C31.8063 17.7882 32.0675 17.7051 32.3644 17.4913L40.5757 11.5065L42.0362 12.3437L38.6876 26.0589H7.03577ZM4.25711 15.9061C3.48526 15.9061 2.77278 15.7161 2.11968 15.3361C1.47845 14.9442 0.961899 14.4277 0.570036 13.7865C0.190048 13.1452 5.41881e-05 12.4268 5.41881e-05 11.6312C5.41881e-05 10.8594 0.190048 10.1528 0.570036 9.51158C0.950025 8.87035 1.46063 8.35974 2.10186 7.97976C2.75497 7.58789 3.47338 7.39196 4.25711 7.39196C5.04084 7.39196 5.75331 7.58789 6.39454 7.97976C7.03577 8.35974 7.54638 8.87035 7.92637 9.51158C8.30636 10.1528 8.49635 10.8594 8.49635 11.6312C8.49635 12.4268 8.30636 13.1452 7.92637 13.7865C7.54638 14.4277 7.03577 14.9442 6.39454 15.3361C5.75331 15.7161 5.04084 15.9061 4.25711 15.9061ZM22.8528 8.4963C22.0691 8.4963 21.3506 8.30631 20.6975 7.92632C20.0563 7.54633 19.5457 7.03572 19.1657 6.39449C18.7857 5.74139 18.5957 5.02297 18.5957 4.23925C18.5957 3.45552 18.7857 2.74304 19.1657 2.10181C19.5457 1.46058 20.0563 0.949974 20.6975 0.569986C21.3506 0.189998 22.0691 4.01586e-06 22.8528 4.01586e-06C23.6246 4.01586e-06 24.3312 0.195935 24.9724 0.587798C25.6255 0.967786 26.1421 1.4784 26.522 2.11963C26.902 2.76086 27.092 3.4674 27.092 4.23925C27.092 5.02297 26.902 5.74139 26.522 6.39449C26.1421 7.03572 25.6255 7.54633 24.9724 7.92632C24.3312 8.30631 23.6246 8.4963 22.8528 8.4963ZM41.4306 15.9061C40.6469 15.9061 39.9344 15.7161 39.2932 15.3361C38.652 14.9442 38.1414 14.4277 37.7614 13.7865C37.3814 13.1452 37.1914 12.4268 37.1914 11.6312C37.1914 10.8594 37.3814 10.1528 37.7614 9.51158C38.1414 8.87035 38.652 8.35974 39.2932 7.97976C39.9344 7.58789 40.6469 7.39196 41.4306 7.39196C42.2144 7.39196 42.9268 7.58789 43.5681 7.97976C44.2212 8.35974 44.7377 8.87035 45.1177 9.51158C45.4977 10.1528 45.6877 10.8594 45.6877 11.6312C45.6877 12.4268 45.4918 13.1452 45.0999 13.7865C44.7199 14.4277 44.2034 14.9442 43.5503 15.3361C42.909 15.7161 42.2025 15.9061 41.4306 15.9061Z" fill="#FFCD7D"/>
</svg>
