<svg width="150" height="150" viewBox="0 0 150 150" fill="none" xmlns="http://www.w3.org/2000/svg">
<path d="M75.7422 57.2715C80.0133 64.1566 85.8649 69.9657 92.834 74.1904L58.3945 108.629C57.9695 109.054 57.7572 109.267 57.4961 109.406C57.235 109.546 56.94 109.606 56.3506 109.724L37.0166 113.59C36.684 113.656 36.5175 113.689 36.4229 113.595C36.3286 113.5 36.3613 113.334 36.4277 113.002L40.2949 93.668C40.4128 93.0786 40.4716 92.7835 40.6113 92.5225C40.7511 92.2615 40.9638 92.0489 41.3887 91.624L75.7422 57.2715ZM95.8018 38.042C96.6302 38.042 97.2976 38.7088 98.6309 40.042L109.979 51.3906C111.313 52.7238 111.979 53.3905 111.979 54.2188C111.979 55.0472 111.313 55.7145 109.979 57.0479L94.292 72.7334C87.2719 68.5726 81.4062 62.7499 77.1963 55.8174L92.9736 40.042C94.3067 38.709 94.9735 38.0422 95.8018 38.042Z" fill="#68B36D"/>
</svg>
