<svg width="104" height="104" viewBox="0 0 104 104" fill="none" xmlns="http://www.w3.org/2000/svg">
<path d="M51.5625 103.125C44.4661 103.125 37.793 101.774 31.543 99.0723C25.3255 96.403 19.8568 92.7083 15.1367 87.9883C10.4167 83.2682 6.70573 77.7995 4.00391 71.582C1.33464 65.332 0 58.6589 0 51.5625C0 44.4336 1.33464 37.7604 4.00391 31.543C6.70573 25.293 10.4167 19.8079 15.1367 15.0879C19.8568 10.3678 25.3255 6.67318 31.543 4.00391C37.793 1.33464 44.4661 0 51.5625 0C58.6914 0 65.3646 1.33464 71.582 4.00391C77.832 6.67318 83.3171 10.3678 88.0371 15.0879C92.7572 19.8079 96.4518 25.293 99.1211 31.543C101.823 37.7604 103.174 44.4336 103.174 51.5625C103.174 58.6589 101.823 65.332 99.1211 71.582C96.4518 77.7995 92.7572 83.2682 88.0371 87.9883C83.3171 92.7083 77.832 96.403 71.582 99.0723C65.3646 101.774 58.6914 103.125 51.5625 103.125ZM21.7285 62.793C22.8678 66.0807 24.6094 69.0592 26.9531 71.7285C29.2969 74.3652 32.0638 76.5788 35.2539 78.3691C38.444 80.1595 41.8945 81.3802 45.6055 82.0312C45.4753 81.7057 45.3776 81.3802 45.3125 81.0547C45.2474 80.7292 45.2148 80.3874 45.2148 80.0293V68.4082C42.7409 65.6413 39.6973 63.4277 36.084 61.7676C32.5033 60.1074 28.5156 59.2773 24.1211 59.2773C23.0143 59.2773 22.2493 59.6191 21.8262 60.3027C21.403 60.9538 21.3704 61.7839 21.7285 62.793ZM34.3262 37.5977C34.3262 40.5599 34.9284 43.278 36.1328 45.752C37.3372 48.1934 39.0299 50.2279 41.2109 51.8555C43.4245 53.4505 45.9961 54.4434 48.9258 54.834V80.0293C48.9258 80.778 49.2025 81.4128 49.7559 81.9336C50.3092 82.4544 50.9603 82.7148 51.709 82.7148C56.1686 82.7148 60.4167 81.8685 64.4531 80.1758C68.5221 78.4831 72.054 76.1393 75.0488 73.1445C78.0762 70.1497 80.2572 66.6992 81.5918 62.793C81.9824 61.7839 81.9661 60.9538 81.543 60.3027C81.1198 59.6191 80.3711 59.2773 79.2969 59.2773C75.5534 59.2773 72.1029 59.8633 68.9453 61.0352C65.7878 62.207 62.9883 63.8346 60.5469 65.918C58.1055 67.9688 56.1035 70.3613 54.541 73.0957V54.834C57.4707 54.4434 60.026 53.4505 62.207 51.8555C64.388 50.2279 66.0807 48.1934 67.2852 45.752C68.4896 43.278 69.0918 40.5599 69.0918 37.5977C69.0918 36.1328 68.9616 34.668 68.7012 33.2031C68.4408 31.7383 67.9688 30.2897 67.2852 28.8574C66.862 28.0436 66.2272 27.5716 65.3809 27.4414C64.5345 27.2786 63.7695 27.5391 63.0859 28.2227L58.0566 33.3984L53.7109 27.832C53.1901 27.1159 52.5228 26.7578 51.709 26.7578C50.9277 26.7578 50.2767 27.1159 49.7559 27.832L45.4102 33.3984L40.332 28.2227C39.681 27.5391 38.9323 27.2624 38.0859 27.3926C37.2396 27.5228 36.6211 28.0111 36.2305 28.8574C35.5469 30.3223 35.0586 31.7871 34.7656 33.252C34.4727 34.6842 34.3262 36.1328 34.3262 37.5977Z" fill="#D87779"/>
</svg>
