<svg width="77" height="113" viewBox="0 0 77 113" fill="none" xmlns="http://www.w3.org/2000/svg">
<rect x="32.2671" y="30.6711" width="9.6808" height="82.3288" rx="4.8404" fill="#23B687"/>
<path d="M57.1422 25.8709C53.3426 38.1769 40.5561 45.153 28.5828 41.4523C16.6095 37.7517 9.06006 29.6493 13.7031 17.6382C16.2136 11.1436 25.6874 9.91708 36.3409 16.3258C49.6648 5.90269 60.9418 13.5649 57.1422 25.8709Z" fill="#FE9092"/>
<ellipse cx="7.72475" cy="7.9387" rx="7.72475" ry="7.9387" transform="matrix(0.955407 0.295292 -0.295017 0.955492 29.3462 14.5698)" fill="#FFD67D"/>
<path d="M56.5914 33.4385C52.7918 45.7445 40.0053 52.7206 28.032 49.0199C16.0587 45.3193 8.50927 37.2169 13.1523 25.2058C15.6628 18.7112 25.1367 17.4847 35.7901 23.8934C49.1141 13.4703 60.391 21.1325 56.5914 33.4385Z" fill="#FF7C7E"/>
<path d="M68.0431 28.118C68.5998 37.7238 61.8966 45.926 53.0711 46.4379C44.2456 46.9499 37.2441 43.2313 37.3176 33.6134C37.3574 28.4128 43.3058 25.0973 51.9345 26.8246C58.134 16.0684 67.4864 18.5121 68.0431 28.118Z" fill="#FF5085"/>
<path d="M5.58756 25.178C2.58954 34.3204 6.96851 43.9671 15.3683 46.7244C23.7681 49.4817 31.4881 47.6821 33.8801 38.3664C35.1735 33.3292 30.2727 28.5995 21.4897 28.0572C18.2517 16.0708 8.58559 16.0355 5.58756 25.178Z" fill="#FF5085"/>
<path d="M52.3238 38.1391C49.4928 47.3348 40.3489 52.6787 31.9003 50.075C23.4517 47.4714 18.1888 41.5408 21.6145 32.554C23.4668 27.6947 30.1979 26.6661 37.6806 31.2993C47.2439 23.3861 55.1547 28.9435 52.3238 38.1391Z" fill="#FF5085"/>
</svg>
