<svg width="150" height="150" viewBox="0 0 150 150" fill="none" xmlns="http://www.w3.org/2000/svg">
<circle cx="75" cy="75" r="75" fill="#FFF07D"/>
<path d="M59.1482 102.488C56.1704 101.225 52.8687 103.41 52.8687 106.645C52.8687 108.332 53.8095 109.879 55.3079 110.655L57.7929 111.941C69.8879 118.204 84.2874 118.125 96.3131 111.73L98.3086 110.669C99.7873 109.883 100.711 108.345 100.711 106.67C100.711 103.425 97.3972 101.232 94.4101 102.502L90.7736 104.049C81.8513 107.842 71.7701 107.846 62.8454 104.058L59.1482 102.488Z" fill="#A87D37"/>
<rect x="51.0469" y="60.7725" width="12.154" height="26.7388" rx="6.07701" fill="#A87D37"/>
<rect x="89.9385" y="60.7725" width="12.154" height="26.7388" rx="6.07701" fill="#A87D37"/>
</svg>
