<svg width="73" height="104" viewBox="0 0 73 104" fill="none" xmlns="http://www.w3.org/2000/svg">
<path d="M36.2305 103.613C28.9714 103.581 22.6237 102.083 17.1875 99.1211C11.7513 96.1914 7.51953 92.0736 4.49219 86.7676C1.4974 81.4616 0 75.2604 0 68.1641C0 64.8763 0.390625 61.5397 1.17188 58.1543C1.98568 54.7363 3.02734 51.3672 4.29688 48.0469C5.56641 44.694 6.93359 41.5202 8.39844 38.5254C10.1237 34.847 12.0768 31.1198 14.2578 27.3438C16.4714 23.5677 18.7988 19.8079 21.2402 16.0645C23.6816 12.2884 26.0905 8.59375 28.4668 4.98047C29.5736 3.28776 30.7617 2.03451 32.0312 1.2207C33.3333 0.406901 34.7331 0 36.2305 0C37.7279 0 39.1113 0.406901 40.3809 1.2207C41.6829 2.03451 42.8874 3.28776 43.9941 4.98047C46.3053 8.49609 48.6328 12.0768 50.9766 15.7227C53.3529 19.3685 55.6152 23.0306 57.7637 26.709C59.9447 30.3548 61.8652 33.9518 63.5254 37.5C65.0879 40.625 66.5365 43.9128 67.8711 47.3633C69.2383 50.8138 70.3288 54.2969 71.1426 57.8125C71.9889 61.3281 72.4121 64.7786 72.4121 68.1641C72.4121 75.2604 70.8984 81.4616 67.8711 86.7676C64.8763 92.0736 60.6608 96.1914 55.2246 99.1211C49.821 102.083 43.4896 103.581 36.2305 103.613Z" fill="white"/>
</svg>
