<svg width="99" height="92" viewBox="0 0 99 92" fill="none" xmlns="http://www.w3.org/2000/svg">
<path d="M49.3047 91.3848C48.7189 91.3848 48.0029 91.1896 47.1568 90.799C46.3106 90.4085 45.5296 89.9692 44.8136 89.481C35.7012 83.623 27.7766 77.4721 21.0399 71.0284C14.3358 64.5846 9.14499 57.9455 5.46749 51.1112C1.82252 44.2769 3.73758e-05 37.3938 3.73758e-05 30.4619C3.73758e-05 25.9707 0.716013 21.8702 2.14796 18.1601C3.57991 14.4175 5.58139 11.1956 8.15239 8.49443C10.7234 5.79325 13.6849 3.71042 17.037 2.24592C20.4216 0.748881 24.0666 0.000361841 27.9719 0.000361841C32.821 0.000361841 37.0518 1.23705 40.6642 3.71042C44.2766 6.18378 47.1568 9.40567 49.3047 13.3761C51.5177 9.37313 54.4142 6.15124 57.994 3.71042C61.6065 1.23705 65.8372 0.000361841 70.6863 0.000361841C74.5916 0.000361841 78.2366 0.748881 81.6212 2.24592C85.0058 3.71042 87.9674 5.79325 90.5058 8.49443C93.0443 11.1956 95.0295 14.4175 96.4614 18.1601C97.9259 21.8702 98.6582 25.9707 98.6582 30.4619C98.6582 37.3938 96.8194 44.2769 93.1419 51.1112C89.4644 57.9455 84.2736 64.5846 77.5695 71.0284C70.8979 77.4721 63.0059 83.623 53.8935 89.481C53.1449 89.9692 52.3476 90.4085 51.5014 90.799C50.6878 91.1896 49.9556 91.3848 49.3047 91.3848Z" fill="#CF5E7A"/>
</svg>
