<svg width="146" height="146" viewBox="0 0 146 146" fill="none" xmlns="http://www.w3.org/2000/svg">
<path d="M72.904 145.808C62.8353 145.808 53.4018 143.903 44.6034 140.092C35.805 136.328 28.0653 131.105 21.3842 124.424C14.703 117.743 9.45696 110.003 5.6459 101.205C1.88189 92.4064 -0.00011643 82.9728 -0.00011643 72.9041C-0.00011643 62.8354 1.88189 53.4018 5.6459 44.6035C9.45696 35.758 14.703 28.0183 21.3842 21.3842C28.0653 14.7031 35.805 9.48055 44.6034 5.71654C53.4018 1.90548 62.8353 -4.87342e-05 72.904 -4.87342e-05C82.9728 -4.87342e-05 92.4063 1.90548 101.205 5.71654C110.05 9.48055 117.813 14.7031 124.494 21.3842C131.176 28.0183 136.398 35.758 140.162 44.6035C143.973 53.4018 145.879 62.8354 145.879 72.9041C145.879 82.9728 143.973 92.4064 140.162 101.205C136.398 110.003 131.176 117.743 124.494 124.424C117.813 131.105 110.05 136.328 101.205 140.092C92.4063 143.903 82.9728 145.808 72.904 145.808ZM39.522 101.064C39.522 103.698 40.2983 105.792 41.851 107.345C43.4507 108.85 45.615 109.603 48.3439 109.603H97.6053C100.334 109.603 102.475 108.85 104.028 107.345C105.627 105.792 106.427 103.698 106.427 101.064V72.5512L75.233 46.3678C73.7274 45.0504 72.1983 45.0504 70.6456 46.3678L39.522 72.5512V101.064ZM27.3125 67.5404C27.3125 68.5284 27.6654 69.3989 28.3711 70.1517C29.0769 70.8574 30.0179 71.2103 31.1941 71.2103C31.8058 71.2103 32.3704 71.0691 32.8879 70.7868C33.4055 70.5045 33.8995 70.1517 34.37 69.7282L71.1397 38.9574C71.7513 38.4399 72.363 38.2046 72.9746 38.2517C73.6333 38.2517 74.245 38.4869 74.8096 38.9574L111.579 69.7282C112.097 70.1517 112.591 70.5045 113.061 70.7868C113.579 71.0691 114.143 71.2103 114.755 71.2103C115.837 71.2103 116.755 70.8809 117.508 70.2222C118.26 69.5635 118.637 68.6931 118.637 67.611C118.637 66.2936 118.166 65.2349 117.225 64.4351L106.568 55.5426V40.2984C106.568 38.5105 105.651 37.6165 103.816 37.6165H98.8757C96.9937 37.6165 96.0527 38.5105 96.0527 40.2984V46.7207L78.6206 32.0411C76.9268 30.6296 75.0448 29.9238 72.9746 29.9238C70.9515 29.9238 69.093 30.6296 67.3992 32.0411L28.724 64.4351C27.783 65.329 27.3125 66.3641 27.3125 67.5404ZM63.2352 101.84V79.3264C63.2352 77.4444 64.1998 76.5034 66.1288 76.5034H79.8204C81.7495 76.5034 82.714 77.4444 82.714 79.3264V101.84H63.2352Z" fill="#5C9F60"/>
</svg>
