<svg width="138" height="128" viewBox="0 0 138 128" fill="none" xmlns="http://www.w3.org/2000/svg">
<path d="M45.084 43.2101C41.0876 43.2101 37.4451 42.2319 34.1565 40.2753C30.9094 38.3188 28.3076 35.717 26.3511 32.4699C24.4362 29.1813 23.4787 25.5596 23.4787 21.6048C23.4787 17.6501 24.4362 14.0284 26.3511 10.7397C28.3076 7.45108 30.9094 4.84929 34.1565 2.93437C37.4451 0.977819 41.0876 -0.000455528 45.084 -0.000455528C49.0387 -0.000455528 52.6396 0.977819 55.8866 2.93437C59.1753 4.84929 61.7771 7.45108 63.692 10.7397C65.6486 14.0284 66.6268 17.6501 66.6268 21.6048C66.6268 25.5596 65.6486 29.1813 63.692 32.4699C61.7771 35.717 59.1753 38.3188 55.8866 40.2753C52.6396 42.2319 49.0387 43.2101 45.084 43.2101ZM92.1036 43.2101C88.1489 43.2101 84.5272 42.2319 81.2385 40.2753C77.9915 38.3188 75.3897 35.717 73.4331 32.4699C71.5182 29.1813 70.5607 25.5596 70.5607 21.6048C70.5607 17.6501 71.5182 14.0284 73.4331 10.7397C75.3897 7.45108 77.9915 4.84929 81.2385 2.93437C84.5272 0.977819 88.1489 -0.000455528 92.1036 -0.000455528C96.1 -0.000455528 99.7217 0.977819 102.969 2.93437C106.257 4.84929 108.859 7.45108 110.774 10.7397C112.731 14.0284 113.709 17.6501 113.709 21.6048C113.709 25.5596 112.731 29.1813 110.774 32.4699C108.859 35.717 106.257 38.3188 102.969 40.2753C99.7217 42.2319 96.1 43.2101 92.1036 43.2101ZM21.6054 85.2343C17.609 85.2343 13.9665 84.2768 10.6779 82.3619C7.43083 80.4054 4.82903 77.7828 2.87249 74.4941C0.957565 71.2054 0.000105232 67.5837 0.000105232 63.629C0.000105232 59.6327 0.957565 56.011 2.87249 52.7639C4.82903 49.4753 7.43083 46.8735 10.6779 44.9585C13.9665 43.002 17.609 42.0237 21.6054 42.0237C25.6018 42.0237 29.2235 43.002 32.4705 44.9585C35.7175 46.8735 38.3193 49.4753 40.2759 52.7639C42.2324 56.011 43.2107 59.6327 43.2107 63.629C43.2107 67.5837 42.2324 71.2054 40.2759 74.4941C38.3193 77.7828 35.7175 80.4054 32.4705 82.3619C29.2235 84.2768 25.6018 85.2343 21.6054 85.2343ZM115.582 85.2343C111.586 85.2343 107.943 84.2768 104.655 82.3619C101.408 80.4054 98.8058 77.7828 96.8493 74.4941C94.8927 71.2054 93.9144 67.5837 93.9144 63.629C93.9144 59.6327 94.8927 56.011 96.8493 52.7639C98.8058 49.4753 101.408 46.8735 104.655 44.9585C107.943 43.002 111.586 42.0237 115.582 42.0237C119.537 42.0237 123.138 43.002 126.385 44.9585C129.674 46.8735 132.296 49.4753 134.253 52.7639C136.209 56.011 137.187 59.6327 137.187 63.629C137.187 67.5837 136.209 71.2054 134.253 74.4941C132.296 77.7828 129.674 80.4054 126.385 82.3619C123.138 84.2768 119.537 85.2343 115.582 85.2343ZM45.084 127.321C41.0876 127.321 37.4451 126.343 34.1565 124.386C30.9094 122.471 28.3076 119.869 26.3511 116.581C24.4362 113.292 23.4787 109.67 23.4787 105.716C23.4787 101.719 24.4362 98.0976 26.3511 94.8505C28.3076 91.5619 30.9094 88.9393 34.1565 86.9827C37.4451 85.0262 41.0876 84.0479 45.084 84.0479C49.0387 84.0479 52.6396 85.0262 55.8866 86.9827C59.1753 88.9393 61.7771 91.5619 63.692 94.8505C65.6486 98.0976 66.6268 101.719 66.6268 105.716C66.6268 109.67 65.6486 113.292 63.692 116.581C61.7771 119.869 59.1753 122.471 55.8866 124.386C52.6396 126.343 49.0387 127.321 45.084 127.321ZM92.1036 127.321C88.1489 127.321 84.5272 126.343 81.2385 124.386C77.9915 122.471 75.3897 119.869 73.4331 116.581C71.5182 113.292 70.5607 109.67 70.5607 105.716C70.5607 101.719 71.5182 98.0976 73.4331 94.8505C75.3897 91.5619 77.9915 88.9393 81.2385 86.9827C84.5272 85.0262 88.1489 84.0479 92.1036 84.0479C96.1 84.0479 99.7217 85.0262 102.969 86.9827C106.257 88.9393 108.859 91.5619 110.774 94.8505C112.731 98.0976 113.709 101.719 113.709 105.716C113.709 109.67 112.731 113.292 110.774 116.581C108.859 119.869 106.257 122.471 102.969 124.386C99.7217 126.343 96.1 127.321 92.1036 127.321Z" fill="#5C9F60"/>
</svg>
