<svg width="150" height="150" viewBox="0 0 150 150" fill="none" xmlns="http://www.w3.org/2000/svg">
<circle cx="75" cy="75" r="75" fill="#FFAB7D"/>
<path d="M94.1311 119.879C97.0632 121.245 100.439 119.175 100.551 115.942C100.609 114.256 99.7226 112.678 98.2519 111.85L95.8131 110.478C83.9424 103.801 69.5488 103.381 57.3087 109.354L55.2776 110.346C53.7726 111.08 52.7958 112.585 52.7377 114.259C52.6252 117.503 55.8614 119.809 58.8908 118.643L62.5787 117.223C71.6271 113.741 81.7023 114.087 90.4904 118.182L94.1311 119.879Z" fill="#A85137"/>
<rect x="51.0469" y="60.7725" width="12.154" height="26.7388" rx="6.07701" fill="#A85137"/>
<rect x="89.9385" y="60.7725" width="12.154" height="26.7388" rx="6.07701" fill="#A85137"/>
</svg>
