<svg width="260" height="260" viewBox="0 0 260 260" fill="none" xmlns="http://www.w3.org/2000/svg">
<ellipse cx="130" cy="130" rx="130" ry="130" transform="matrix(-1 0 0 1 259.999 0)" fill="#FFF9E3"/>
<mask id="mask0_87_16094" style="mask-type:alpha" maskUnits="userSpaceOnUse" x="0" y="0" width="261" height="260">
<ellipse cx="130" cy="130" rx="130" ry="130" transform="matrix(-1 0 0 1 260 0)" fill="#CEFADC"/>
</mask>
<g mask="url(#mask0_87_16094)">
<path d="M118.175 200.257C119.986 197.034 123.396 195.038 127.094 195.038C130.893 195.038 134.379 197.143 136.148 200.505L154.069 234.567C164.988 255.318 149.94 280.24 126.491 280.24C102.663 280.24 87.6506 254.586 99.322 233.813L118.175 200.257Z" fill="#E19363"/>
<path d="M124.014 172.442C124.014 170.573 125.529 169.058 127.398 169.058C129.268 169.058 130.783 170.573 130.783 172.442V290.902C130.783 292.771 129.268 294.287 127.398 294.287C125.529 294.287 124.014 292.771 124.014 290.902V172.442Z" fill="#23B687"/>
<path d="M124.843 105.748C125.267 105.221 125.913 104.922 126.589 104.94C127.275 104.957 127.912 105.298 128.307 105.859L138.975 120.996C147.91 133.674 147.699 150.655 138.45 163.107L128.312 176.757C127.914 177.293 127.285 177.609 126.618 177.609C125.928 177.609 125.281 177.272 124.886 176.706L113.284 160.067C104.437 147.381 105.021 130.379 114.718 118.33L124.843 105.748Z" fill="#23B687"/>
</g>
</svg>
