<svg width="260" height="260" viewBox="0 0 260 260" fill="none" xmlns="http://www.w3.org/2000/svg">
<circle cx="130" cy="130" r="130" fill="#FFF9E3"/>
<mask id="mask0_87_15982" style="mask-type:alpha" maskUnits="userSpaceOnUse" x="0" y="0" width="260" height="260">
<circle cx="130" cy="130" r="130" fill="#CEFADC"/>
</mask>
<g mask="url(#mask0_87_15982)">
<g filter="url(#filter0_d_87_15982)">
<path d="M227.436 125.753C250.617 125.753 269.409 147.229 269.409 173.722C269.409 200.214 250.617 221.69 227.436 221.69C204.255 221.69 185.463 200.214 185.463 173.722C185.463 147.229 204.255 125.753 227.436 125.753ZM220.691 146.312C207.031 146.312 195.958 158.967 195.958 174.578C195.958 190.19 207.031 202.846 220.691 202.846C234.351 202.846 245.425 190.19 245.425 174.578C245.425 158.967 234.351 146.312 220.691 146.312Z" fill="#90C9FE"/>
<path d="M230.863 136.033C245.528 136.034 257.417 151.757 257.417 171.153C257.416 190.549 245.528 206.273 230.863 206.273C216.197 206.273 204.308 190.55 204.308 171.153C204.308 151.757 216.197 136.033 230.863 136.033ZM226.596 151.085C217.954 151.085 210.948 160.35 210.948 171.78C210.948 183.21 217.954 192.477 226.596 192.477C235.238 192.477 242.244 183.21 242.244 171.78C242.244 160.35 235.238 151.085 226.596 151.085Z" fill="#7CB0FF"/>
<path d="M89.0727 72.8819C88.4133 71.9245 88.6548 70.6138 89.6121 69.9544C90.5695 69.2949 91.8802 69.5364 92.5396 70.4938L168.8 181.204C169.459 182.161 169.218 183.472 168.261 184.131C167.303 184.791 165.992 184.549 165.333 183.592L89.0727 72.8819Z" fill="#23B687"/>
<path d="M112.858 69.9112C113.056 69.816 113.286 69.8175 113.483 69.9152C113.682 70.0144 113.823 70.2013 113.865 70.4202L114.944 76.1479C115.873 81.0737 113.487 86.0304 109.058 88.3778L104.331 90.8829C104.14 90.9843 103.912 90.9902 103.716 90.8987C103.512 90.804 103.368 90.6169 103.327 90.3966L102.176 84.114C101.274 79.1951 103.774 74.2808 108.281 72.113L112.858 69.9112Z" fill="#23B687"/>
<path d="M80.568 57.767C80.5863 57.5484 80.7044 57.3504 80.8882 57.2305C81.0748 57.1088 81.3076 57.0816 81.5172 57.157L87.0018 59.1297C91.7186 60.8262 94.7821 65.3951 94.5606 70.4028L94.3242 75.747C94.3146 75.9635 94.2041 76.163 94.0256 76.2859C93.8411 76.413 93.6065 76.4428 93.3961 76.3659L87.3967 74.1741C82.6995 72.4581 79.7304 67.8123 80.146 62.8287L80.568 57.767Z" fill="#23B687"/>
<path d="M124.481 86.7822C124.679 86.6871 124.909 86.6886 125.106 86.7863C125.305 86.8855 125.447 87.0724 125.488 87.2913L126.567 93.019C127.496 97.9448 125.11 102.902 120.681 105.249L115.954 107.754C115.763 107.855 115.535 107.861 115.339 107.77C115.136 107.675 114.991 107.488 114.951 107.268L113.799 100.985C112.897 96.0662 115.397 91.1519 119.904 88.9841L124.481 86.7822Z" fill="#23B687"/>
<path d="M136.261 103.886C136.459 103.791 136.689 103.792 136.886 103.89C137.085 103.989 137.227 104.176 137.268 104.395L138.348 110.123C139.276 115.048 136.89 120.005 132.461 122.352L127.735 124.857C127.543 124.959 127.315 124.965 127.119 124.873C126.916 124.779 126.771 124.592 126.731 124.371L125.579 118.089C124.678 113.17 127.177 108.255 131.684 106.088L136.261 103.886Z" fill="#23B687"/>
<path d="M148.838 122.146C149.036 122.05 149.266 122.052 149.463 122.15C149.662 122.249 149.803 122.436 149.845 122.655L150.924 128.382C151.853 133.308 149.467 138.265 145.038 140.612L140.311 143.117C140.12 143.219 139.892 143.225 139.696 143.133C139.492 143.038 139.348 142.851 139.307 142.631L138.156 136.348C137.254 131.429 139.754 126.515 144.261 124.347L148.838 122.146Z" fill="#23B687"/>
<path d="M162.052 141.329C162.25 141.234 162.48 141.236 162.677 141.333C162.876 141.432 163.018 141.619 163.059 141.838L164.139 147.566C165.067 152.492 162.681 157.448 158.252 159.796L153.526 162.301C153.334 162.402 153.106 162.408 152.91 162.317C152.707 162.222 152.562 162.035 152.522 161.815L151.37 155.532C150.469 150.613 152.968 145.699 157.475 143.531L162.052 141.329Z" fill="#23B687"/>
<path d="M80.9099 92.2585C80.7505 92.4093 80.6698 92.6252 80.691 92.8436C80.7126 93.0653 80.8368 93.2641 81.0266 93.3807L85.9934 96.4307C90.2649 99.0537 95.7464 98.5913 99.518 95.2898L103.543 91.7664C103.706 91.6236 103.793 91.4127 103.778 91.1966C103.761 90.9731 103.638 90.7713 103.447 90.655L97.9871 87.3399C93.7126 84.7444 88.2301 85.3286 84.5985 88.7666L80.9099 92.2585Z" fill="#23B687"/>
<path d="M92.5288 109.132C92.3694 109.282 92.2887 109.498 92.3099 109.717C92.3314 109.938 92.4557 110.137 92.6455 110.254L97.6123 113.304C101.884 115.927 107.365 115.464 111.137 112.163L115.162 108.639C115.325 108.497 115.412 108.286 115.396 108.07C115.38 107.846 115.257 107.644 115.066 107.528L109.606 104.213C105.331 101.617 99.849 102.202 96.2174 105.64L92.5288 109.132Z" fill="#23B687"/>
<path d="M104.31 126.235C104.151 126.386 104.07 126.602 104.091 126.82C104.113 127.042 104.237 127.241 104.427 127.357L109.394 130.407C113.665 133.03 119.147 132.568 122.918 129.266L126.943 125.743C127.106 125.6 127.193 125.389 127.178 125.173C127.162 124.95 127.038 124.748 126.847 124.632L121.387 121.317C117.113 118.721 111.63 119.305 107.999 122.743L104.31 126.235Z" fill="#23B687"/>
<path d="M116.888 144.493C116.728 144.644 116.648 144.86 116.669 145.078C116.69 145.3 116.815 145.498 117.004 145.615L121.971 148.665C126.243 151.288 131.724 150.826 135.496 147.524L139.521 144.001C139.684 143.858 139.771 143.647 139.755 143.431C139.739 143.208 139.616 143.006 139.424 142.889L133.965 139.574C129.69 136.979 124.208 137.563 120.576 141.001L116.888 144.493Z" fill="#23B687"/>
<path d="M130.103 163.678C129.944 163.829 129.863 164.045 129.884 164.264C129.906 164.485 130.03 164.684 130.22 164.801L135.187 167.851C139.458 170.474 144.939 170.011 148.711 166.71L152.736 163.186C152.899 163.044 152.986 162.833 152.971 162.617C152.955 162.393 152.831 162.191 152.64 162.075L147.18 158.76C142.906 156.164 137.423 156.749 133.792 160.186L130.103 163.678Z" fill="#23B687"/>
<path d="M231.46 72.8799C232.12 71.9226 231.878 70.6119 230.921 69.9524C229.963 69.293 228.653 69.5345 227.993 70.4918L151.733 181.202C151.074 182.159 151.315 183.47 152.272 184.129C153.23 184.789 154.54 184.547 155.2 183.59L231.46 72.8799Z" fill="#3D7154"/>
<path d="M207.676 69.9092C207.479 69.8141 207.248 69.8156 207.052 69.9132C206.852 70.0124 206.711 70.1993 206.669 70.4182L205.59 76.146C204.661 81.0718 207.047 86.0285 211.476 88.3758L216.203 90.8809C216.394 90.9824 216.622 90.9882 216.819 90.8967C217.022 90.8021 217.166 90.615 217.207 90.3946L218.358 84.112C219.26 79.1931 216.76 74.2789 212.254 72.111L207.676 69.9092Z" fill="#3D7154"/>
<path d="M239.964 57.7651C239.946 57.5464 239.828 57.3484 239.644 57.2286C239.457 57.1069 239.225 57.0797 239.015 57.1551L233.53 59.1278C228.814 60.8243 225.75 65.3932 225.972 70.4008L226.208 75.7451C226.218 75.9616 226.328 76.161 226.507 76.284C226.691 76.411 226.926 76.4409 227.136 76.364L233.136 74.1722C237.833 72.4561 240.802 67.8103 240.386 62.8268L239.964 57.7651Z" fill="#3D7154"/>
<path d="M196.053 86.7813C195.856 86.6862 195.625 86.6877 195.429 86.7853C195.229 86.8845 195.088 87.0714 195.046 87.2903L193.967 93.018C193.038 97.9439 195.424 102.901 199.853 105.248L204.58 107.753C204.771 107.854 204.999 107.86 205.196 107.769C205.399 107.674 205.543 107.487 205.584 107.267L206.735 100.984C207.637 96.0652 205.137 91.151 200.631 88.9831L196.053 86.7813Z" fill="#3D7154"/>
<path d="M184.27 103.884C184.072 103.789 183.841 103.79 183.645 103.888C183.445 103.987 183.304 104.174 183.263 104.393L182.183 110.121C181.255 115.046 183.64 120.003 188.069 122.35L192.796 124.856C192.988 124.957 193.215 124.963 193.412 124.871C193.615 124.777 193.76 124.59 193.8 124.369L194.952 118.087C195.853 113.168 193.353 108.253 188.847 106.086L184.27 103.884Z" fill="#3D7154"/>
<path d="M171.696 122.144C171.499 122.048 171.268 122.05 171.072 122.148C170.872 122.247 170.731 122.434 170.689 122.653L169.61 128.38C168.682 133.306 171.067 138.263 175.496 140.61L180.223 143.115C180.414 143.217 180.642 143.223 180.839 143.131C181.042 143.036 181.186 142.849 181.227 142.629L182.378 136.346C183.28 131.428 180.78 126.513 176.274 124.345L171.696 122.144Z" fill="#3D7154"/>
<path d="M158.479 141.326C158.281 141.231 158.051 141.233 157.854 141.33C157.655 141.429 157.513 141.616 157.472 141.835L156.393 147.563C155.464 152.489 157.85 157.445 162.279 159.793L167.006 162.298C167.197 162.399 167.425 162.405 167.621 162.314C167.824 162.219 167.969 162.032 168.009 161.812L169.161 155.529C170.063 150.61 167.563 145.696 163.056 143.528L158.479 141.326Z" fill="#3D7154"/>
<path d="M239.625 92.2565C239.784 92.4073 239.865 92.6233 239.843 92.8416C239.822 93.0634 239.698 93.2622 239.508 93.3787L234.541 96.4288C230.27 99.0518 224.788 98.5894 221.016 95.2879L216.991 91.7644C216.828 91.6217 216.741 91.4108 216.757 91.1946C216.773 90.9712 216.896 90.7694 217.088 90.6531L222.547 87.338C226.822 84.7425 232.304 85.3267 235.936 88.7646L239.625 92.2565Z" fill="#3D7154"/>
<path d="M228.002 109.13C228.161 109.28 228.242 109.496 228.22 109.715C228.199 109.936 228.075 110.135 227.885 110.252L222.918 113.302C218.646 115.925 213.165 115.462 209.393 112.161L205.368 108.637C205.205 108.495 205.118 108.284 205.134 108.068C205.15 107.844 205.273 107.642 205.465 107.526L210.924 104.211C215.199 101.616 220.681 102.2 224.313 105.638L228.002 109.13Z" fill="#3D7154"/>
<path d="M216.222 126.233C216.382 126.384 216.462 126.6 216.441 126.818C216.42 127.04 216.295 127.239 216.105 127.355L211.139 130.405C206.867 133.028 201.386 132.566 197.614 129.264L193.589 125.741C193.426 125.598 193.339 125.387 193.355 125.171C193.371 124.948 193.494 124.746 193.685 124.63L199.145 121.315C203.419 118.719 208.902 119.303 212.534 122.741L216.222 126.233Z" fill="#3D7154"/>
<path d="M203.644 144.492C203.803 144.643 203.884 144.859 203.863 145.077C203.841 145.299 203.717 145.498 203.527 145.614L198.561 148.664C194.289 151.287 188.808 150.825 185.036 147.523L181.011 144C180.848 143.857 180.761 143.646 180.776 143.43C180.792 143.207 180.916 143.005 181.107 142.888L186.567 139.573C190.841 136.978 196.324 137.562 199.955 141L203.644 144.492Z" fill="#3D7154"/>
<path d="M190.427 163.676C190.587 163.827 190.667 164.043 190.646 164.262C190.625 164.483 190.5 164.682 190.311 164.799L185.344 167.849C181.072 170.472 175.591 170.009 171.819 166.708L167.794 163.184C167.631 163.042 167.544 162.831 167.56 162.615C167.576 162.391 167.699 162.189 167.89 162.073L173.35 158.758C177.625 156.162 183.107 156.747 186.739 160.185L190.427 163.676Z" fill="#3D7154"/>
<path d="M231.46 72.879C232.12 71.9216 231.878 70.6109 230.921 69.9515C229.963 69.292 228.653 69.5335 227.993 70.4909L151.733 181.201C151.074 182.158 151.315 183.469 152.272 184.128C153.23 184.788 154.54 184.546 155.2 183.589L231.46 72.879Z" fill="#23B687"/>
<path d="M207.676 69.9092C207.479 69.8141 207.248 69.8156 207.052 69.9132C206.852 70.0124 206.711 70.1993 206.669 70.4182L205.59 76.146C204.661 81.0718 207.047 86.0285 211.476 88.3758L216.203 90.8809C216.394 90.9824 216.622 90.9882 216.819 90.8967C217.022 90.8021 217.166 90.615 217.207 90.3946L218.358 84.112C219.26 79.1931 216.76 74.2789 212.254 72.111L207.676 69.9092Z" fill="#23B687"/>
<path d="M239.964 57.7651C239.946 57.5464 239.828 57.3484 239.644 57.2286C239.457 57.1069 239.225 57.0797 239.015 57.1551L233.53 59.1278C228.814 60.8243 225.75 65.3932 225.972 70.4008L226.208 75.7451C226.218 75.9616 226.328 76.161 226.507 76.284C226.691 76.411 226.926 76.4409 227.136 76.364L233.136 74.1722C237.833 72.4561 240.802 67.8103 240.386 62.8268L239.964 57.7651Z" fill="#23B687"/>
<path d="M196.052 86.7813C195.854 86.6862 195.624 86.6877 195.427 86.7853C195.228 86.8845 195.086 87.0714 195.045 87.2903L193.965 93.018C193.037 97.9439 195.423 102.901 199.852 105.248L204.578 107.753C204.77 107.854 204.998 107.86 205.194 107.769C205.397 107.674 205.542 107.487 205.582 107.267L206.734 100.984C207.635 96.0652 205.136 91.151 200.629 88.9831L196.052 86.7813Z" fill="#23B687"/>
<path d="M184.27 103.884C184.072 103.789 183.841 103.79 183.645 103.888C183.445 103.987 183.304 104.174 183.263 104.393L182.183 110.121C181.255 115.046 183.64 120.003 188.069 122.35L192.796 124.856C192.988 124.957 193.215 124.963 193.412 124.871C193.615 124.777 193.76 124.59 193.8 124.369L194.952 118.087C195.853 113.168 193.353 108.253 188.847 106.086L184.27 103.884Z" fill="#23B687"/>
<path d="M171.694 122.144C171.496 122.048 171.266 122.05 171.069 122.148C170.87 122.247 170.728 122.434 170.687 122.653L169.607 128.38C168.679 133.306 171.065 138.263 175.494 140.61L180.22 143.115C180.412 143.217 180.64 143.223 180.836 143.131C181.039 143.036 181.184 142.849 181.224 142.629L182.376 136.346C183.277 131.428 180.778 126.513 176.271 124.345L171.694 122.144Z" fill="#23B687"/>
<path d="M158.479 141.326C158.281 141.231 158.051 141.233 157.854 141.33C157.655 141.429 157.513 141.616 157.472 141.835L156.393 147.563C155.464 152.489 157.85 157.445 162.279 159.793L167.006 162.298C167.197 162.399 167.425 162.405 167.621 162.314C167.824 162.219 167.969 162.032 168.009 161.812L169.161 155.529C170.063 150.61 167.563 145.696 163.056 143.528L158.479 141.326Z" fill="#23B687"/>
<path d="M239.625 92.2565C239.784 92.4073 239.865 92.6233 239.843 92.8416C239.822 93.0634 239.698 93.2622 239.508 93.3787L234.541 96.4288C230.27 99.0518 224.788 98.5894 221.016 95.2879L216.991 91.7644C216.828 91.6217 216.741 91.4108 216.757 91.1946C216.773 90.9712 216.896 90.7694 217.088 90.6531L222.547 87.338C226.822 84.7425 232.304 85.3267 235.936 88.7646L239.625 92.2565Z" fill="#23B687"/>
<path d="M228.002 109.13C228.161 109.28 228.242 109.496 228.22 109.715C228.199 109.936 228.075 110.135 227.885 110.252L222.918 113.302C218.646 115.925 213.165 115.462 209.393 112.161L205.368 108.637C205.205 108.495 205.118 108.284 205.134 108.068C205.15 107.844 205.273 107.642 205.465 107.526L210.924 104.211C215.199 101.616 220.681 102.2 224.313 105.638L228.002 109.13Z" fill="#23B687"/>
<path d="M216.222 126.233C216.382 126.384 216.462 126.6 216.441 126.818C216.42 127.04 216.295 127.239 216.105 127.355L211.139 130.405C206.867 133.028 201.386 132.566 197.614 129.264L193.589 125.741C193.426 125.598 193.339 125.387 193.355 125.171C193.371 124.948 193.494 124.746 193.685 124.63L199.145 121.315C203.419 118.719 208.902 119.303 212.534 122.741L216.222 126.233Z" fill="#23B687"/>
<path d="M203.644 144.493C203.803 144.644 203.884 144.86 203.863 145.078C203.841 145.3 203.717 145.498 203.527 145.615L198.561 148.665C194.289 151.288 188.808 150.826 185.036 147.524L181.011 144.001C180.848 143.858 180.761 143.647 180.776 143.431C180.792 143.208 180.916 143.006 181.107 142.889L186.567 139.574C190.841 136.979 196.324 137.563 199.955 141.001L203.644 144.493Z" fill="#23B687"/>
<path d="M190.427 163.676C190.587 163.827 190.667 164.043 190.646 164.262C190.625 164.483 190.5 164.682 190.311 164.799L185.344 167.849C181.072 170.472 175.591 170.009 171.819 166.708L167.794 163.184C167.631 163.042 167.544 162.831 167.56 162.615C167.576 162.391 167.699 162.189 167.89 162.073L173.35 158.758C177.625 156.162 183.107 156.747 186.739 160.185L190.427 163.676Z" fill="#23B687"/>
<path d="M91.0946 138.802C95.1409 123.056 109.336 112.048 125.593 112.048H189.548C206.378 112.048 220.911 123.827 224.395 140.293L240.386 215.854C242.312 224.954 237.45 234.128 228.838 237.643C183.822 256.018 133.517 256.662 88.0457 239.444L84.2271 237.998C74.5656 234.34 69.2009 224.001 71.7721 213.995L91.0946 138.802Z" fill="#90C9FE"/>
<path d="M94.3003 126.028C96.4615 117.791 103.906 112.048 112.422 112.048H203.596C212.28 112.048 219.823 118.022 221.811 126.475C224.883 139.532 213.626 151.486 200.408 149.201L195.604 148.371C171.314 144.173 146.491 144.098 122.176 148.151L115.502 149.263C102.101 151.496 90.8522 139.169 94.3003 126.028Z" fill="#7CB0FF"/>
<path d="M37.4431 147.227C41.9554 140.806 50.8183 139.259 57.2391 143.771L99.3946 173.396C105.815 177.908 107.363 186.771 102.85 193.192C98.338 199.613 89.475 201.16 83.0542 196.648L40.8988 167.023C34.478 162.51 32.9309 153.647 37.4431 147.227Z" fill="#90C9FE"/>
<path d="M7.13127 148.188C3.09654 131.258 17.3872 115.585 34.6162 118.045L35.9189 118.23C42.8492 119.22 48.6986 123.888 51.2005 130.426L57.4807 146.839C58.7709 150.21 58.3017 154.003 56.2287 156.958L53.2731 161.172C50.8261 164.661 46.5863 166.426 42.3864 165.703L22.0739 162.209C14.7359 160.947 8.85745 155.43 7.13127 148.188Z" fill="#90C9FE"/>
<circle cx="155.514" cy="110.264" r="15.3481" fill="#FFF7DD"/>
<circle cx="170.863" cy="116.166" r="15.3481" fill="#FFF7DD"/>
<rect x="156.695" y="110.265" width="8.26434" height="7.08372" rx="3.54186" fill="#FFD67D"/>
<ellipse cx="149.612" cy="120.889" rx="14.1674" ry="10.6256" transform="rotate(21.8738 149.612 120.889)" fill="#EEFCFF"/>
<ellipse cx="165.804" cy="123.62" rx="14.1674" ry="10.6256" transform="rotate(-25.696 165.804 123.62)" fill="#EEFCFF"/>
<ellipse cx="174.086" cy="123.277" rx="14.1674" ry="10.6256" transform="rotate(-25.696 174.086 123.277)" fill="#FFFDF8"/>
<ellipse cx="174.086" cy="123.277" rx="14.1674" ry="10.6256" transform="rotate(-25.696 174.086 123.277)" fill="#FFFDF8"/>
<ellipse cx="144.924" cy="122.385" rx="14.1674" ry="10.6256" transform="rotate(-143.891 144.924 122.385)" fill="#FFFDF8"/>
<ellipse cx="158.248" cy="128.578" rx="11.2369" ry="10.6256" transform="rotate(97.9146 158.248 128.578)" fill="#FFFDF8"/>
<circle cx="114.412" cy="115.279" r="15.3481" transform="rotate(19.1716 114.412 115.279)" fill="#FFF7DD"/>
<circle cx="126.971" cy="125.896" r="15.3481" transform="rotate(19.1716 126.971 125.896)" fill="#FFF7DD"/>
<rect x="115.527" y="115.667" width="8.26434" height="7.08372" rx="3.54186" transform="rotate(19.1716 115.527 115.667)" fill="#FFD67D"/>
<ellipse cx="105.347" cy="123.377" rx="14.1674" ry="10.6256" transform="rotate(41.0455 105.347 123.377)" fill="#EEFCFF"/>
<ellipse cx="119.745" cy="131.275" rx="14.1674" ry="10.6256" transform="rotate(-6.52435 119.745 131.275)" fill="#EEFCFF"/>
<ellipse cx="127.68" cy="133.668" rx="14.1674" ry="10.6256" transform="rotate(-6.52435 127.68 133.668)" fill="#FFFDF8"/>
<ellipse cx="127.68" cy="133.668" rx="14.1674" ry="10.6256" transform="rotate(-6.52435 127.68 133.668)" fill="#FFFDF8"/>
<ellipse cx="100.427" cy="123.25" rx="14.1674" ry="10.6256" transform="rotate(-124.719 100.427 123.25)" fill="#FFFDF8"/>
<ellipse cx="110.98" cy="133.476" rx="11.2369" ry="10.6256" transform="rotate(117.086 110.98 133.476)" fill="#FFFDF8"/>
<rect x="195.744" y="153.094" width="13.7054" height="46.2557" rx="6.8527" transform="rotate(-6.87861 195.744 153.094)" fill="#D1F0FB"/>
<rect x="202.595" y="202.775" width="13.7054" height="14.4" rx="6.8527" transform="rotate(-6.87861 202.595 202.775)" fill="#D1F0FB"/>
<path d="M75.9058 170.213C73.9656 164.78 80.071 160.013 84.8707 163.213L87.8116 165.174L89.5082 166.588C100.471 175.723 95.1377 193.543 80.9588 195.154L69.8897 187.184C66.1591 184.498 67.6206 178.634 72.1754 178.013C75.3778 177.577 77.3669 174.304 76.2799 171.26L75.9058 170.213Z" fill="#7CB0FF"/>
<path d="M55.9728 164.546C58.4894 169.893 52.2025 175.063 47.4418 171.56L38.8528 165.241L39.4279 164.969C48.272 160.795 54.508 152.55 56.1176 142.903L62.969 147.699C66.9139 150.46 64.7157 156.662 59.9124 156.323C56.2951 156.067 53.7386 159.798 55.2827 163.079L55.9728 164.546Z" fill="#7CB0FF"/>
<path d="M248.724 206.228C252.544 208.645 251.841 214.414 247.553 215.843L240.285 218.266C240.014 212.233 239.103 206.246 237.568 200.406L236.859 197.707L242.187 195.635C245.124 194.493 247.732 197.896 245.866 200.435C244.785 201.905 245.177 203.984 246.719 204.96L248.724 206.228Z" fill="#7CB0FF"/>
<circle cx="193.413" cy="118.815" r="15.3481" transform="rotate(-21.2328 193.413 118.815)" fill="#FFF7DD"/>
<circle cx="209.856" cy="118.758" r="15.3481" transform="rotate(-21.2328 209.856 118.758)" fill="#FFF7DD"/>
<rect x="194.514" y="118.387" width="8.26434" height="7.08372" rx="3.54186" transform="rotate(-21.2328 194.514 118.387)" fill="#FFD67D"/>
<ellipse cx="191.76" cy="130.857" rx="14.1674" ry="10.6256" transform="rotate(0.641012 191.76 130.857)" fill="#EEFCFF"/>
<ellipse cx="207.844" cy="127.539" rx="14.1674" ry="10.6256" transform="rotate(-46.9288 207.844 127.539)" fill="#EEFCFF"/>
<ellipse cx="215.438" cy="124.216" rx="14.1674" ry="10.6256" transform="rotate(-46.9288 215.438 124.216)" fill="#FFFDF8"/>
<ellipse cx="215.438" cy="124.216" rx="14.1674" ry="10.6256" transform="rotate(-46.9288 215.438 124.216)" fill="#FFFDF8"/>
<ellipse cx="187.931" cy="133.949" rx="14.1674" ry="10.6256" transform="rotate(-165.124 187.931 133.949)" fill="#FFFDF8"/>
<ellipse cx="202.594" cy="134.896" rx="11.2369" ry="10.6256" transform="rotate(76.6818 202.594 134.896)" fill="#FFFDF8"/>
<path d="M49.2648 126.61L50.5682 128.783C51.4115 130.188 52.1541 131.651 52.7903 133.162L56.0455 140.889C57.7322 144.893 57.6665 149.421 55.8642 153.374C54.2905 156.826 51.5089 159.584 48.0433 161.127L38.9897 165.16L20.1498 161.734C20.1467 161.734 20.1439 161.732 20.1417 161.73L22.7448 161.934C41.8581 163.435 56.0396 144.546 49.2648 126.61Z" fill="#7CB0FF"/>
</g>
</g>
<defs>
<filter id="filter0_d_87_15982" x="6.44287" y="57.1133" width="262.966" height="198.103" filterUnits="userSpaceOnUse" color-interpolation-filters="sRGB">
<feFlood flood-opacity="0" result="BackgroundImageFix"/>
<feColorMatrix in="SourceAlpha" type="matrix" values="0 0 0 0 0 0 0 0 0 0 0 0 0 0 0 0 0 0 127 0" result="hardAlpha"/>
<feOffset dy="3.31049"/>
<feComposite in2="hardAlpha" operator="out"/>
<feColorMatrix type="matrix" values="0 0 0 0 0 0 0 0 0 0 0 0 0 0 0 0 0 0 0.25 0"/>
<feBlend mode="normal" in2="BackgroundImageFix" result="effect1_dropShadow_87_15982"/>
<feBlend mode="normal" in="SourceGraphic" in2="effect1_dropShadow_87_15982" result="shape"/>
</filter>
</defs>
</svg>
