<svg width="260" height="260" viewBox="0 0 260 260" fill="none" xmlns="http://www.w3.org/2000/svg">
<ellipse cx="130.507" cy="130.5" rx="129.493" ry="129.5" fill="#FFF9E3"/>
<mask id="mask0_87_16103" style="mask-type:alpha" maskUnits="userSpaceOnUse" x="0" y="0" width="260" height="260">
<circle cx="129.996" cy="129.996" r="129.996" fill="#CEFADC"/>
</mask>
<g mask="url(#mask0_87_16103)">
<g filter="url(#filter0_d_87_16103)">
<rect x="128.774" y="73.4824" width="10.6766" height="177.944" rx="5.33832" fill="#23B687"/>
<path d="M188.909 141.709C190.291 138.726 194.141 137.893 196.634 140.036C198.381 141.539 198.862 144.049 197.792 146.091L191.253 158.576C180.745 178.641 165.652 195.943 147.2 209.079L138.084 215.568C136.243 216.879 133.744 216.764 132.03 215.29C129.526 213.137 129.817 209.175 132.608 207.411L143.001 200.84C160.083 190.041 173.689 174.545 182.188 156.209L188.909 141.709Z" fill="#23B687"/>
<path d="M76.8815 115.59C75.3036 112.346 71.04 111.546 68.3938 113.999C66.5828 115.678 66.1486 118.374 67.3411 120.537L76.3843 136.934C86.1265 154.599 100.167 169.52 117.207 180.319L129.565 188.151C131.847 189.597 134.882 188.561 135.804 186.022C136.486 184.143 135.76 182.043 134.062 180.987L126.262 176.135C107.586 164.519 92.5737 147.861 82.9557 128.082L76.8815 115.59Z" fill="#23B687"/>
<path d="M79.2937 89.3772C83.4214 102.961 76.0477 117.231 62.824 121.249C49.6003 125.267 37.7 122.533 34.525 108.697C32.8082 101.216 40.7059 94.2427 54.396 93.5128C60.1323 75.7636 75.166 75.793 79.2937 89.3772Z" fill="#FE9092"/>
<ellipse cx="57.6172" cy="102.126" rx="8.51924" ry="8.75151" transform="rotate(-16.9019 57.6172 102.126)" fill="#FFD67D"/>
<path d="M83.4654 96.6253C87.593 110.21 80.2193 124.479 66.9956 128.497C53.7719 132.515 41.8717 129.781 38.6966 115.945C36.9798 108.464 44.8775 101.491 58.5676 100.761C64.3039 83.0116 79.3377 83.0411 83.4654 96.6253Z" fill="#FF7C7E"/>
<path d="M90.6429 84.6926C97.0832 93.1201 96.0241 104.751 88.2772 110.671C80.5304 116.592 71.8375 117.522 65.9655 108.694C62.7904 103.92 66.1775 97.2177 75.1273 93.4639C74.1491 79.8118 84.2026 76.265 90.6429 84.6926Z" fill="#FF5085"/>
<path d="M31.7672 120.595C34.6738 130.796 44.6314 136.899 54.0081 134.227C63.3849 131.556 69.3267 125.143 65.7594 115.158C63.8305 109.76 56.4325 108.469 48.0734 113.4C37.7133 104.455 28.8605 110.395 31.7672 120.595Z" fill="#FF5085"/>
<path d="M82.4686 103.554C85.5607 113.7 80.5067 124.229 71.1803 127.072C61.8538 129.914 53.3833 127.75 50.9636 117.427C49.6552 111.846 55.1696 106.748 64.8668 106.356C68.7174 93.2212 79.3766 93.4084 82.4686 103.554Z" fill="#FF5085"/>
<path d="M159.767 66.4113C155.577 79.9763 141.475 87.666 128.27 83.5868C115.065 79.5075 106.739 70.5762 111.86 57.3363C114.629 50.1773 125.077 48.8253 136.826 55.8896C151.521 44.4002 163.958 52.8463 159.767 66.4113Z" fill="#FE9092"/>
<ellipse cx="134.669" cy="64.8302" rx="8.51924" ry="8.75151" transform="rotate(17.1668 134.669 64.8302)" fill="#FFD67D"/>
<path d="M159.16 74.7531C154.97 88.3181 140.868 96.0078 127.663 91.9286C114.458 87.8493 106.132 78.918 111.253 65.6781C114.021 58.5191 124.47 57.1671 136.219 64.2314C150.914 52.742 163.351 61.1881 159.16 74.7531Z" fill="#FF7C7E"/>
<path d="M171.789 68.8876C172.403 79.4764 165.01 88.518 155.277 89.0823C145.543 89.6467 137.821 85.5476 137.902 74.9454C137.946 69.2126 144.507 65.5578 154.023 67.4618C160.861 55.6048 171.175 58.2987 171.789 68.8876Z" fill="#FF5085"/>
<path d="M102.906 65.6484C99.5991 75.7265 104.429 86.3604 113.693 89.3999C122.957 92.4393 131.471 90.4556 134.109 80.1865C135.536 74.6338 130.131 69.4201 120.444 68.8223C116.873 55.6092 106.212 55.5703 102.906 65.6484Z" fill="#FF5085"/>
<path d="M154.455 79.9353C151.332 90.0721 141.247 95.9628 131.929 93.0928C122.611 90.2227 116.807 83.6851 120.585 73.7787C122.628 68.4221 130.052 67.2882 138.305 72.3955C148.852 63.6725 157.577 69.7986 154.455 79.9353Z" fill="#FF5085"/>
<path d="M219.562 147.482C208.492 156.371 192.503 154.842 183.849 144.065C175.196 133.289 173.302 121.226 184.961 113.128C191.265 108.748 200.677 113.481 206.453 125.915C225.061 124.629 230.632 138.593 219.562 147.482Z" fill="#FE9092"/>
<ellipse cx="199.658" cy="132.113" rx="8.51924" ry="8.75151" transform="rotate(51.2355 199.658 132.113)" fill="#FFD67D"/>
<path d="M214.388 154.051C203.317 162.941 187.328 161.411 178.675 150.635C170.021 139.858 168.128 127.796 179.786 119.697C186.09 115.318 195.503 120.051 201.278 132.484C219.887 131.199 225.458 145.162 214.388 154.051Z" fill="#FF7C7E"/>
<path d="M228.135 156.269C222.712 165.385 211.523 168.733 203.144 163.748C194.764 158.763 190.664 151.041 196.67 142.304C199.918 137.58 207.4 138.228 214.217 145.136C226.523 139.144 233.558 147.154 228.135 156.269Z" fill="#FF5085"/>
<path d="M172.89 114.998C164.506 121.494 162.549 133.008 168.521 140.715C174.492 148.423 182.657 151.549 190.594 144.521C194.887 140.72 193.33 133.373 185.641 127.452C190.084 114.506 181.275 108.502 172.89 114.998Z" fill="#FF5085"/>
<path d="M207.585 155.71C199.32 162.358 187.666 161.588 181.555 153.991C175.445 146.393 174.299 137.726 182.978 131.637C187.671 128.344 194.456 131.563 198.431 140.417C212.054 139.1 215.85 149.062 207.585 155.71Z" fill="#FF5085"/>
<rect x="91.4053" y="214.058" width="81.8543" height="74.7365" rx="26.5898" fill="#E19363"/>
<rect x="84.2905" y="214.058" width="96.0898" height="26.6916" rx="13.3458" fill="#B75312"/>
<rect x="87.8481" y="231.853" width="3.55898" height="7.11796" rx="1.77949" fill="#964613"/>
<rect x="150.129" y="231.853" width="3.55898" height="7.11796" rx="1.77949" fill="#964613"/>
<rect x="93.1863" y="231.853" width="26.6924" height="7.11796" rx="3.55898" fill="#964613"/>
<rect x="121.656" y="231.853" width="8.89746" height="7.11796" rx="3.55898" fill="#964613"/>
<rect x="132.333" y="231.853" width="16.0154" height="7.11796" rx="3.55898" fill="#964613"/>
<rect x="153.687" y="231.853" width="23.1334" height="7.11796" rx="3.55898" fill="#964613"/>
</g>
</g>
<defs>
<filter id="filter0_d_87_16103" x="31.2073" y="50.4951" width="198.78" height="241.869" filterUnits="userSpaceOnUse" color-interpolation-filters="sRGB">
<feFlood flood-opacity="0" result="BackgroundImageFix"/>
<feColorMatrix in="SourceAlpha" type="matrix" values="0 0 0 0 0 0 0 0 0 0 0 0 0 0 0 0 0 0 127 0" result="hardAlpha"/>
<feOffset dy="3.56994"/>
<feComposite in2="hardAlpha" operator="out"/>
<feColorMatrix type="matrix" values="0 0 0 0 0 0 0 0 0 0 0 0 0 0 0 0 0 0 0.25 0"/>
<feBlend mode="normal" in2="BackgroundImageFix" result="effect1_dropShadow_87_16103"/>
<feBlend mode="normal" in="SourceGraphic" in2="effect1_dropShadow_87_16103" result="shape"/>
</filter>
</defs>
</svg>
