<svg width="260" height="260" viewBox="0 0 260 260" fill="none" xmlns="http://www.w3.org/2000/svg">
<circle cx="129.999" cy="129.999" r="129.999" transform="matrix(-1 0 0 1 259.998 0)" fill="#FFF9E3"/>
<mask id="mask0_87_16072" style="mask-type:alpha" maskUnits="userSpaceOnUse" x="0" y="0" width="260" height="260">
<circle cx="129.999" cy="129.999" r="129.999" transform="matrix(-1 0 0 1 260 0)" fill="#CEFADC"/>
</mask>
<g mask="url(#mask0_87_16072)">
<rect x="150.968" y="132.205" width="43.307" height="90.551" rx="15.3322" transform="rotate(-53.7823 150.968 132.205)" fill="#B75312"/>
<path d="M71.6505 47.7012L111.378 79.8616C112.831 81.0382 114.032 82.496 114.909 84.1477L116.323 86.812C117.891 89.7665 120.977 91.599 124.321 91.5617C126.118 91.5417 127.88 92.0637 129.376 93.0597L175.615 123.841L134.597 125.053C110.463 125.766 88.9565 109.92 82.4863 86.6585L71.6505 47.7012Z" fill="#90C9FE"/>
<path d="M71.6503 47.2744L114.3 75.4443C115.861 76.4748 117.613 77.1799 119.452 77.5171L122.419 78.061C125.709 78.6642 128.387 81.0532 129.361 84.2532C129.884 85.9726 130.913 87.4945 132.315 88.6204L175.614 123.414L164.392 83.9432C157.788 60.719 136.191 44.997 112.061 45.8485L71.6503 47.2744Z" fill="#90C9FE"/>
<path d="M82.3813 134.413C82.8516 133.163 82.2194 131.768 80.9692 131.298C79.719 130.827 78.3242 131.46 77.8538 132.71L23.4628 277.286C22.9924 278.536 23.6246 279.931 24.8748 280.401C26.1251 280.872 27.5198 280.239 27.9902 278.989L82.3813 134.413Z" fill="#23B687"/>
<path d="M55.0331 137.684C54.7862 137.633 54.5296 137.699 54.3375 137.862C54.1425 138.028 54.0365 138.275 54.0511 138.531L54.4331 145.217C54.7616 150.967 58.7944 155.834 64.3834 157.226L70.3481 158.711C70.5897 158.771 70.8455 158.714 71.0392 158.558C71.2395 158.396 71.349 158.147 71.333 157.891L70.8777 150.565C70.5213 144.83 66.3729 140.042 60.7471 138.872L55.0331 137.684Z" fill="#23B687"/>
<path d="M87.6795 115.202C87.5986 114.963 87.4121 114.775 87.174 114.693C86.9322 114.609 86.665 114.643 86.4521 114.785L80.882 118.503C76.0917 121.701 73.9403 127.644 75.5738 133.168L77.3172 139.062C77.3878 139.301 77.5662 139.492 77.7993 139.58C78.0402 139.671 78.3101 139.639 78.5235 139.495L84.607 135.39C89.3701 132.176 91.3949 126.173 89.5516 120.73L87.6795 115.202Z" fill="#23B687"/>
<path d="M46.742 159.719C46.4952 159.668 46.2385 159.734 46.0465 159.897C45.8515 160.063 45.7455 160.31 45.7601 160.566L46.1421 167.252C46.4706 173.003 50.5034 177.87 56.0924 179.261L62.0571 180.746C62.2987 180.806 62.5545 180.749 62.7482 180.593C62.9485 180.431 63.058 180.183 63.042 179.926L62.5867 172.601C62.2303 166.866 58.0819 162.077 52.4561 160.908L46.742 159.719Z" fill="#23B687"/>
<path d="M38.3373 182.053C38.0904 182.002 37.8338 182.068 37.6417 182.231C37.4467 182.397 37.3407 182.644 37.3553 182.9L37.7373 189.586C38.0658 195.337 42.0986 200.204 47.6876 201.595L53.6523 203.08C53.8939 203.14 54.1497 203.083 54.3434 202.927C54.5437 202.765 54.6532 202.517 54.6372 202.26L54.1819 194.935C53.8255 189.2 49.6771 184.411 44.0513 183.242L38.3373 182.053Z" fill="#23B687"/>
<path d="M29.369 205.898C29.1222 205.847 28.8655 205.912 28.6734 206.076C28.4784 206.241 28.3724 206.489 28.387 206.745L28.769 213.431C29.0975 219.181 33.1303 224.048 38.7193 225.44L44.684 226.925C44.9256 226.985 45.1815 226.928 45.3752 226.772C45.5754 226.61 45.6849 226.361 45.669 226.104L45.2137 218.779C44.8572 213.044 40.7089 208.256 35.0831 207.086L29.369 205.898Z" fill="#23B687"/>
<path d="M19.9447 230.951C19.6979 230.9 19.4412 230.965 19.2491 231.128C19.0541 231.294 18.9481 231.542 18.9627 231.797L19.3447 238.484C19.6732 244.234 23.706 249.101 29.295 250.492L35.2597 251.977C35.5013 252.038 35.7572 251.981 35.9509 251.824C36.1511 251.663 36.2606 251.414 36.2446 251.157L35.7894 243.832C35.4329 238.097 31.2845 233.309 25.6587 232.139L19.9447 230.951Z" fill="#23B687"/>
<path d="M96.8501 153.761C97.0695 153.886 97.2194 154.104 97.2562 154.353C97.2935 154.607 97.21 154.863 97.0306 155.045L92.3362 159.822C88.299 163.93 82.0582 164.932 76.9379 162.294L71.4736 159.479C71.2522 159.365 71.0971 159.154 71.0546 158.909C71.0106 158.655 71.0922 158.396 71.2735 158.213L76.4441 153.005C80.4923 148.927 86.768 148.06 91.7698 150.889L96.8501 153.761Z" fill="#23B687"/>
<path d="M88.5605 175.795C88.78 175.919 88.9298 176.137 88.9666 176.387C89.004 176.64 88.9205 176.896 88.7411 177.078L84.0466 181.855C80.0094 185.963 73.7686 186.965 68.6484 184.327L63.184 181.513C62.9627 181.398 62.8076 181.187 62.765 180.942C62.721 180.688 62.8026 180.429 62.984 180.246L68.1545 175.038C72.2028 170.96 78.4785 170.093 83.4803 172.922L88.5605 175.795Z" fill="#23B687"/>
<path d="M80.1567 198.13C80.3762 198.254 80.526 198.472 80.5628 198.722C80.6002 198.975 80.5167 199.231 80.3373 199.413L75.6428 204.19C71.6056 208.298 65.3648 209.3 60.2446 206.662L54.7802 203.847C54.5588 203.733 54.4038 203.522 54.3612 203.277C54.3172 203.023 54.3988 202.764 54.5802 202.581L59.7507 197.373C63.799 193.295 70.0747 192.428 75.0765 195.257L80.1567 198.13Z" fill="#23B687"/>
<path d="M71.185 221.973C71.4045 222.097 71.5543 222.316 71.5911 222.565C71.6285 222.819 71.545 223.075 71.3656 223.257L66.6711 228.034C62.6339 232.142 56.3931 233.144 51.2729 230.506L45.8085 227.691C45.5872 227.577 45.4321 227.366 45.3895 227.121C45.3455 226.867 45.4271 226.608 45.6085 226.425L50.779 221.217C54.8273 217.139 61.103 216.272 66.1048 219.101L71.185 221.973Z" fill="#23B687"/>
<path d="M61.7617 247.025C61.9811 247.149 62.131 247.368 62.1678 247.617C62.2051 247.87 62.1217 248.126 61.9422 248.309L57.2478 253.085C53.2106 257.193 46.9698 258.195 41.8496 255.558L36.3852 252.743C36.1638 252.629 36.0087 252.418 35.9662 252.172C35.9222 251.919 36.0038 251.66 36.1852 251.477L41.3557 246.268C45.4039 242.19 51.6796 241.324 56.6814 244.152L61.7617 247.025Z" fill="#23B687"/>
</g>
</svg>
