<svg width="260" height="260" viewBox="0 0 260 260" fill="none" xmlns="http://www.w3.org/2000/svg">
<ellipse cx="129.95" cy="129.466" rx="129.95" ry="129.466" transform="matrix(-1 0 0 1 260 0)" fill="#FFF9E3"/>
<mask id="mask0_87_15961" style="mask-type:alpha" maskUnits="userSpaceOnUse" x="0" y="1" width="260" height="259">
<ellipse cx="129.95" cy="129.466" rx="129.95" ry="129.466" transform="matrix(-1 0 0 1 259.899 1.06836)" fill="#CEFADC"/>
</mask>
<g mask="url(#mask0_87_15961)">
<rect x="123.521" y="128.54" width="12.5931" height="106.643" rx="6.29655" fill="#23B687"/>
<path d="M155.875 122.324C150.933 138.264 134.3 147.3 118.725 142.507C103.149 137.713 93.3287 127.218 99.3685 111.66C102.634 103.247 114.958 101.658 128.816 109.96C146.149 96.4585 160.818 106.384 155.875 122.324Z" fill="#FE9092"/>
<ellipse cx="10.0449" cy="10.287" rx="10.0449" ry="10.287" transform="matrix(0.955759 0.294151 -0.296161 0.955138 119.718 107.684)" fill="#FFD67D"/>
<path d="M155.159 132.125C150.216 148.065 133.583 157.101 118.008 152.308C102.433 147.514 92.6121 137.019 98.6519 121.461C101.918 113.048 114.242 111.459 128.1 119.761C145.432 106.259 160.102 116.184 155.159 132.125Z" fill="#FF7C7E"/>
<path d="M170.056 125.234C170.78 137.677 162.06 148.301 150.58 148.964C139.099 149.628 129.991 144.811 130.087 132.352C130.139 125.616 137.877 121.321 149.101 123.559C157.166 109.626 169.332 112.791 170.056 125.234Z" fill="#FF5085"/>
<path d="M88.8105 121.427C84.9106 133.269 90.6069 145.765 101.534 149.336C112.46 152.908 122.503 150.577 125.614 138.51C127.297 131.985 120.922 125.859 109.497 125.156C105.284 109.63 92.7104 109.584 88.8105 121.427Z" fill="#FF5085"/>
<path d="M149.607 138.213C145.924 150.125 134.03 157.047 123.039 153.674C112.049 150.302 105.203 142.619 109.659 130.979C112.069 124.684 120.825 123.352 130.559 129.353C142.999 119.103 153.29 126.302 149.607 138.213Z" fill="#FF5085"/>
<rect x="80.3357" y="191.271" width="96.5471" height="87.8236" rx="21.9607" fill="#E19363"/>
<rect x="71.9409" y="191.271" width="113.338" height="31.3656" rx="15.6828" fill="#B75312"/>
<rect x="76.1392" y="212.182" width="4.1977" height="8.36415" rx="2.09885" fill="#964613"/>
<rect x="149.599" y="212.182" width="4.1977" height="8.36415" rx="2.09885" fill="#964613"/>
<rect x="82.4358" y="212.182" width="31.4827" height="8.36415" rx="4.18207" fill="#964613"/>
<rect x="116.017" y="212.182" width="10.4943" height="8.36415" rx="4.18207" fill="#964613"/>
<rect x="128.61" y="212.182" width="18.8897" height="8.36415" rx="4.18207" fill="#964613"/>
<rect x="153.796" y="212.182" width="27.2851" height="8.36415" rx="4.18207" fill="#964613"/>
</g>
</svg>
