<svg width="494" height="1070" viewBox="0 0 494 1070" fill="none" xmlns="http://www.w3.org/2000/svg">
<g clip-path="url(#clip0_87_15427)">
<rect width="494" height="1070" fill="white"/>
<rect x="-0.0861816" y="0.508789" width="503.012" height="1089.52" fill="#99F1FF"/>
<circle cx="31.0564" cy="31.0564" r="31.0564" transform="matrix(-1 0 0 1 131.267 8.65527)" fill="#FFC965"/>
<rect width="2.08874" height="10.4437" rx="1.04437" transform="matrix(-1 0 0 1 113.937 35.9033)" fill="#DE905D"/>
<rect width="2.08874" height="10.4437" rx="1.04437" transform="matrix(-1 0 0 1 97.2263 35.9033)" fill="#DE905D"/>
<path d="M99.7 50.4217C99.05 50.1458 98.3292 50.6228 98.3292 51.329C98.3292 51.6973 98.5346 52.0349 98.8617 52.2043L99.4042 52.4851C102.044 53.8521 105.188 53.8349 107.813 52.4391L108.248 52.2075C108.571 52.0359 108.773 51.7001 108.773 51.3346C108.773 50.626 108.05 50.1475 107.397 50.4247L106.604 50.7622C104.656 51.5904 102.455 51.5911 100.507 50.7642L99.7 50.4217Z" fill="#DE905D"/>
<rect x="186.669" y="71.8828" width="76.9695" height="14.6242" rx="7.3121" fill="white"/>
<rect x="165.888" y="59.5674" width="76.9695" height="14.6242" rx="7.3121" fill="white"/>
<rect x="75.6807" y="115.667" width="76.9695" height="14.6242" rx="7.3121" fill="white"/>
<rect x="54.8994" y="103.352" width="76.9695" height="14.6242" rx="7.3121" fill="white"/>
<rect x="298.259" y="24.9473" width="79.4229" height="17.3101" rx="8.65506" fill="white"/>
<rect x="277.894" y="36.1484" width="60.0763" height="16.2919" rx="8.14594" fill="white"/>
<rect x="354.262" y="78.9141" width="79.4229" height="17.3101" rx="8.65506" fill="white"/>
<rect x="333.897" y="90.1143" width="60.0763" height="16.2919" rx="8.14594" fill="white"/>
<path d="M136.867 154.264L185.212 156.334C260.322 159.549 333.192 130.339 385.285 76.1348C405.861 54.7238 429.929 36.9675 456.459 23.6252L503.434 0V314.637L237.164 211.285L136.867 154.264Z" fill="#51DBF2"/>
<path d="M465.25 233.686L382.773 205.685L288.026 193.29C235.241 186.385 184.96 166.621 141.602 135.733C109.192 112.644 72.8179 95.7038 34.2887 85.754L-0.0861206 76.877V363.003L217.309 332.965L465.25 233.686Z" fill="#65E9FE"/>
<mask id="mask0_87_15427" style="mask-type:alpha" maskUnits="userSpaceOnUse" x="-1" y="0" width="495" height="1071">
<rect x="-0.0861816" y="0.508789" width="494" height="1070" fill="#BFE4FF"/>
</mask>
<g mask="url(#mask0_87_15427)">
<path d="M-10.0862 261.683C-10.0862 257.499 -7.74082 253.669 -4.0145 251.766C148.385 173.961 328.099 170.559 483.334 242.541L502.949 251.636C507.196 253.606 509.914 257.862 509.914 262.543V1062.51C509.914 1084.6 492.005 1102.51 469.914 1102.51H29.9138C7.82243 1102.51 -10.0862 1084.6 -10.0862 1062.51V261.683Z" fill="#5C9F60"/>
</g>
<ellipse cx="85.4464" cy="301.908" rx="9.16418" ry="6.10945" fill="#4E8D51"/>
<path d="M86.5469 284.146C86.5469 283.584 86.091 283.128 85.5286 283.128C84.9663 283.128 84.5104 283.584 84.5104 284.146V300.438C84.5104 301 84.9663 301.456 85.5286 301.456C86.091 301.456 86.5469 301 86.5469 300.438V284.146Z" fill="#65E868"/>
<path d="M74.172 282.969C74.0432 282.989 73.9308 283.068 73.8676 283.182C73.8034 283.298 73.7972 283.437 73.8508 283.558L75.2536 286.725C76.4599 289.45 79.2989 291.071 82.2582 290.727L85.4164 290.36C85.5443 290.345 85.6579 290.271 85.7231 290.16C85.7906 290.045 85.7983 289.904 85.7438 289.783L84.1892 286.32C82.9721 283.608 80.0916 282.045 77.1548 282.504L74.172 282.969Z" fill="#65E868"/>
<path d="M97.3453 283.136C97.4742 283.156 97.5865 283.235 97.6497 283.349C97.7139 283.465 97.7202 283.604 97.6666 283.725L96.2638 286.892C95.0574 289.617 92.2185 291.238 89.2592 290.894L86.101 290.527C85.973 290.512 85.8595 290.438 85.7942 290.327C85.7267 290.212 85.719 290.071 85.7735 289.95L87.3281 286.487C88.5453 283.775 91.4258 282.212 94.3625 282.671L97.3453 283.136Z" fill="#65E868"/>
<ellipse cx="418.411" cy="380.314" rx="9.16418" ry="6.10945" fill="#4E8D51"/>
<path d="M419.512 362.55C419.512 361.988 419.056 361.532 418.493 361.532C417.931 361.532 417.475 361.988 417.475 362.55V378.842C417.475 379.405 417.931 379.861 418.493 379.861C419.056 379.861 419.512 379.405 419.512 378.842V362.55Z" fill="#65E868"/>
<path d="M407.137 361.374C407.008 361.394 406.896 361.472 406.832 361.586C406.768 361.702 406.762 361.841 406.816 361.962L408.218 365.13C409.425 367.854 412.264 369.476 415.223 369.131L418.381 368.764C418.509 368.749 418.623 368.675 418.688 368.564C418.755 368.449 418.763 368.309 418.709 368.187L417.154 364.724C415.937 362.012 413.056 360.45 410.12 360.908L407.137 361.374Z" fill="#65E868"/>
<path d="M430.31 361.541C430.439 361.561 430.551 361.639 430.615 361.753C430.679 361.869 430.685 362.008 430.631 362.129L429.229 365.297C428.022 368.021 425.183 369.643 422.224 369.298L419.066 368.931C418.938 368.916 418.824 368.842 418.759 368.731C418.692 368.616 418.684 368.476 418.738 368.354L420.293 364.891C421.51 362.179 424.391 360.617 427.327 361.075L430.31 361.541Z" fill="#65E868"/>
<ellipse cx="73.2272" cy="539.159" rx="9.16418" ry="6.10945" fill="#4E8D51"/>
<path d="M74.3276 521.396C74.3276 520.834 73.8718 520.378 73.3094 520.378C72.747 520.378 72.2912 520.834 72.2912 521.396V537.688C72.2912 538.25 72.747 538.706 73.3094 538.706C73.8718 538.706 74.3276 538.25 74.3276 537.688V521.396Z" fill="#65E868"/>
<path d="M61.953 520.219C61.8242 520.239 61.7118 520.318 61.6486 520.432C61.5844 520.548 61.5782 520.687 61.6318 520.808L63.0346 523.975C64.2409 526.7 67.0799 528.321 70.0392 527.977L73.1974 527.61C73.3253 527.595 73.4389 527.521 73.5041 527.41C73.5716 527.295 73.5793 527.154 73.5248 527.033L71.9702 523.57C70.7531 520.858 67.8726 519.295 64.9358 519.754L61.953 520.219Z" fill="#65E868"/>
<path d="M85.1263 520.386C85.2552 520.406 85.3675 520.485 85.4307 520.599C85.4949 520.715 85.5012 520.854 85.4476 520.975L84.0448 524.142C82.8384 526.867 79.9995 528.488 77.0402 528.144L73.882 527.777C73.754 527.762 73.6405 527.688 73.5752 527.577C73.5077 527.462 73.5 527.321 73.5545 527.2L75.1091 523.737C76.3263 521.025 79.2068 519.462 82.1435 519.921L85.1263 520.386Z" fill="#65E868"/>
<ellipse cx="152.65" cy="985.148" rx="9.16418" ry="6.10945" fill="#4E8D51"/>
<path d="M153.75 967.386C153.75 966.824 153.295 966.368 152.732 966.368C152.17 966.368 151.714 966.824 151.714 967.386V983.678C151.714 984.241 152.17 984.697 152.732 984.697C153.295 984.697 153.75 984.241 153.75 983.678V967.386Z" fill="#65E868"/>
<path d="M141.376 966.209C141.247 966.23 141.135 966.308 141.071 966.422C141.007 966.538 141.001 966.677 141.055 966.798L142.457 969.966C143.664 972.69 146.503 974.312 149.462 973.967L152.62 973.6C152.748 973.585 152.862 973.511 152.927 973.4C152.994 973.285 153.002 973.145 152.948 973.023L151.393 969.56C150.176 966.848 147.295 965.286 144.359 965.744L141.376 966.209Z" fill="#65E868"/>
<path d="M164.549 966.376C164.678 966.397 164.79 966.475 164.854 966.589C164.918 966.705 164.924 966.844 164.87 966.965L163.468 970.133C162.261 972.857 159.422 974.479 156.463 974.134L153.305 973.767C153.177 973.752 153.063 973.678 152.998 973.567C152.931 973.452 152.923 973.312 152.977 973.19L154.532 969.727C155.749 967.015 158.63 965.453 161.566 965.911L164.549 966.376Z" fill="#65E868"/>
<ellipse cx="459.141" cy="758.082" rx="9.16418" ry="6.10945" fill="#4E8D51"/>
<path d="M460.242 740.319C460.242 739.757 459.786 739.301 459.223 739.301C458.661 739.301 458.205 739.757 458.205 740.319V756.611C458.205 757.173 458.661 757.629 459.223 757.629C459.786 757.629 460.242 757.173 460.242 756.611V740.319Z" fill="#65E868"/>
<path d="M447.867 739.142C447.738 739.162 447.626 739.241 447.563 739.355C447.498 739.471 447.492 739.61 447.546 739.731L448.949 742.898C450.155 745.622 452.994 747.244 455.953 746.9L459.111 746.532C459.239 746.518 459.353 746.444 459.418 746.332C459.486 746.218 459.493 746.077 459.439 745.956L457.884 742.492C456.667 739.781 453.787 738.218 450.85 738.677L447.867 739.142Z" fill="#65E868"/>
<path d="M471.04 739.309C471.169 739.329 471.282 739.408 471.345 739.522C471.409 739.637 471.415 739.777 471.362 739.898L469.959 743.065C468.752 745.789 465.914 747.411 462.954 747.067L459.796 746.699C459.668 746.684 459.555 746.61 459.489 746.499C459.422 746.385 459.414 746.244 459.469 746.123L461.023 742.659C462.24 739.948 465.121 738.385 468.058 738.844L471.04 739.309Z" fill="#65E868"/>
<ellipse cx="49.807" cy="414.934" rx="9.16418" ry="6.10945" fill="#4E8D51"/>
<rect x="47.7646" y="396.605" width="4.07297" height="18.3284" rx="2.03648" fill="#65E868"/>
<path d="M58.2952 394.127C56.7141 399.245 51.3937 402.147 46.4115 400.608C41.4294 399.068 38.288 395.699 40.22 390.703C41.2647 388.002 45.2068 387.492 49.6397 390.158C55.1838 385.823 59.8762 389.009 58.2952 394.127Z" fill="#FE9092"/>
<ellipse cx="48.8262" cy="393.531" rx="3.21415" ry="3.30178" transform="rotate(17.1668 48.8262 393.531)" fill="#FFD67D"/>
<path d="M58.0667 397.275C56.4856 402.393 51.1651 405.294 46.183 403.755C41.2009 402.216 38.0595 398.846 39.9915 393.851C41.0362 391.15 44.9782 390.64 49.4112 393.305C54.9553 388.97 59.6477 392.157 58.0667 397.275Z" fill="#FF7C7E"/>
<path d="M62.8312 395.062C63.0628 399.057 60.2736 402.468 56.6012 402.681C52.9289 402.894 50.0156 401.348 50.0462 397.348C50.0627 395.185 52.5379 393.806 56.1283 394.524C58.7079 390.051 62.5995 391.067 62.8312 395.062Z" fill="#FF5085"/>
<path d="M36.8428 393.84C35.5953 397.642 37.4174 401.654 40.9126 402.801C44.4078 403.947 47.6201 403.199 48.6154 399.324C49.1536 397.23 47.1143 395.263 43.4597 395.037C42.1124 390.052 38.0903 390.037 36.8428 393.84Z" fill="#FF5085"/>
<path d="M56.2902 399.23C55.1122 403.054 51.3074 405.277 47.7919 404.194C44.2764 403.111 42.0865 400.645 43.5119 396.907C44.2827 394.886 47.0835 394.459 50.1971 396.385C54.1764 393.094 57.4681 395.406 56.2902 399.23Z" fill="#FF5085"/>
<ellipse cx="438.791" cy="997.368" rx="9.16418" ry="6.10945" fill="#4E8D51"/>
<rect x="436.748" y="979.04" width="4.07297" height="18.3284" rx="2.03648" fill="#65E868"/>
<path d="M447.279 976.562C445.698 981.68 440.377 984.581 435.395 983.042C430.413 981.503 427.272 978.133 429.204 973.138C430.248 970.437 434.19 969.927 438.623 972.592C444.167 968.257 448.86 971.444 447.279 976.562Z" fill="#FE9092"/>
<ellipse cx="437.81" cy="975.966" rx="3.21415" ry="3.30178" transform="rotate(17.1668 437.81 975.966)" fill="#FFD67D"/>
<path d="M447.05 979.709C445.469 984.827 440.149 987.729 435.166 986.19C430.184 984.651 427.043 981.281 428.975 976.286C430.02 973.584 433.962 973.074 438.395 975.74C443.939 971.405 448.631 974.591 447.05 979.709Z" fill="#FF7C7E"/>
<path d="M451.815 977.497C452.046 981.492 449.257 984.903 445.585 985.116C441.912 985.329 438.999 983.782 439.03 979.782C439.046 977.619 441.521 976.24 445.112 976.959C447.691 972.485 451.583 973.502 451.815 977.497Z" fill="#FF5085"/>
<path d="M425.827 976.274C424.58 980.076 426.402 984.088 429.897 985.235C433.392 986.382 436.604 985.633 437.6 981.759C438.138 979.664 436.099 977.697 432.444 977.472C431.097 972.487 427.075 972.472 425.827 976.274Z" fill="#FF5085"/>
<path d="M445.274 981.665C444.096 985.489 440.291 987.712 436.776 986.629C433.26 985.546 431.07 983.079 432.496 979.342C433.266 977.321 436.067 976.893 439.181 978.82C443.16 975.529 446.452 977.84 445.274 981.665Z" fill="#FF5085"/>
<ellipse cx="445.919" cy="605.345" rx="9.16418" ry="6.10945" fill="#4E8D51"/>
<rect x="443.877" y="587.017" width="4.07297" height="18.3284" rx="2.03648" fill="#65E868"/>
<path d="M454.407 584.539C452.826 589.656 447.505 592.558 442.523 591.019C437.541 589.48 434.4 586.11 436.332 581.115C437.376 578.414 441.318 577.903 445.751 580.569C451.295 576.234 455.988 579.421 454.407 584.539Z" fill="#FE9092"/>
<ellipse cx="444.938" cy="583.942" rx="3.21415" ry="3.30178" transform="rotate(17.1668 444.938 583.942)" fill="#FFD67D"/>
<path d="M454.178 587.686C452.597 592.804 447.276 595.705 442.294 594.166C437.312 592.627 434.171 589.257 436.103 584.262C437.147 581.561 441.09 581.051 445.523 583.716C451.067 579.381 455.759 582.568 454.178 587.686Z" fill="#FF7C7E"/>
<path d="M458.942 585.473C459.174 589.468 456.385 592.879 452.713 593.092C449.04 593.305 446.127 591.759 446.158 587.759C446.174 585.596 448.649 584.217 452.24 584.935C454.819 580.462 458.711 581.478 458.942 585.473Z" fill="#FF5085"/>
<path d="M432.955 584.251C431.708 588.053 433.53 592.065 437.025 593.212C440.52 594.358 443.732 593.61 444.728 589.736C445.266 587.641 443.227 585.674 439.572 585.448C438.225 580.463 434.203 580.448 432.955 584.251Z" fill="#FF5085"/>
<path d="M452.402 589.641C451.224 593.466 447.419 595.688 443.903 594.605C440.388 593.522 438.198 591.056 439.623 587.318C440.394 585.297 443.195 584.87 446.309 586.797C450.288 583.506 453.58 585.817 452.402 589.641Z" fill="#FF5085"/>
<ellipse cx="67.1339" cy="816.085" rx="9.16418" ry="6.10945" fill="#4E8D51"/>
<rect x="65.0916" y="797.757" width="4.07297" height="18.3284" rx="2.03648" fill="#65E868"/>
<path d="M75.6218 795.279C74.0408 800.397 68.7203 803.298 63.7382 801.759C58.7561 800.22 55.6147 796.85 57.5467 791.855C58.5913 789.154 62.5334 788.644 66.9663 791.309C72.5105 786.974 77.2029 790.161 75.6218 795.279Z" fill="#FE9092"/>
<ellipse cx="66.1526" cy="794.682" rx="3.21415" ry="3.30178" transform="rotate(17.1668 66.1526 794.682)" fill="#FFD67D"/>
<path d="M75.3931 798.426C73.812 803.544 68.4916 806.445 63.5094 804.906C58.5273 803.367 55.3859 799.998 57.3179 795.002C58.3626 792.301 62.3047 791.791 66.7376 794.456C72.2817 790.122 76.9741 793.308 75.3931 798.426Z" fill="#FF7C7E"/>
<path d="M80.1578 796.213C80.3894 800.208 77.6002 803.62 73.9279 803.833C70.2556 804.045 67.3422 802.499 67.3728 798.499C67.3894 796.336 69.8645 794.957 73.455 795.676C76.0346 791.202 79.9262 792.218 80.1578 796.213Z" fill="#FF5085"/>
<path d="M54.1692 794.991C52.9217 798.793 54.7438 802.805 58.239 803.952C61.7342 805.099 64.9465 804.35 65.9418 800.476C66.48 798.381 64.4408 796.414 60.7861 796.188C59.4388 791.203 55.4167 791.189 54.1692 794.991Z" fill="#FF5085"/>
<path d="M73.6168 800.381C72.4389 804.206 68.634 806.428 65.1185 805.345C61.6031 804.263 59.4131 801.796 60.8386 798.059C61.6093 796.038 64.4102 795.61 67.5237 797.537C71.5031 794.246 74.7948 796.557 73.6168 800.381Z" fill="#FF5085"/>
</g>
<defs>
<clipPath id="clip0_87_15427">
<rect width="494" height="1070" fill="white"/>
</clipPath>
</defs>
</svg>
