<svg width="146" height="146" viewBox="0 0 146 146" fill="none" xmlns="http://www.w3.org/2000/svg">
<path d="M72.904 145.809C62.8353 145.809 53.4018 143.903 44.6034 140.092C35.805 136.328 28.0653 131.105 21.3842 124.424C14.703 117.743 9.45696 110.003 5.6459 101.205C1.88189 92.4066 -0.00011643 82.9731 -0.00011643 72.9044C-0.00011643 62.8356 1.88189 53.4021 5.6459 44.6037C9.45696 35.7583 14.703 28.0186 21.3842 21.3845C28.0653 14.7034 35.805 9.48081 44.6034 5.7168C53.4018 1.90574 62.8353 0.000213936 72.904 0.000213936C82.9728 0.000213936 92.4063 1.90574 101.205 5.7168C110.05 9.48081 117.813 14.7034 124.494 21.3845C131.176 28.0186 136.398 35.7583 140.162 44.6037C143.973 53.4021 145.879 62.8356 145.879 72.9044C145.879 82.9731 143.973 92.4066 140.162 101.205C136.398 110.003 131.176 117.743 124.494 124.424C117.813 131.105 110.05 136.328 101.205 140.092C92.4063 143.903 82.9728 145.809 72.904 145.809ZM40.51 109.674H105.298C106.898 109.674 108.098 109.204 108.897 108.263C109.697 107.274 110.097 106.051 110.097 104.593C110.097 102.617 109.344 100.076 107.839 96.9705C106.333 93.8181 104.051 90.6658 100.993 87.5134C97.9817 84.314 94.1236 81.6557 89.4186 79.5384C84.7607 77.3741 79.2558 76.292 72.904 76.292C66.5052 76.292 60.9768 77.3741 56.3189 79.5384C51.6609 81.6557 47.8028 84.314 44.7445 87.5134C41.7333 90.6658 39.4749 93.8181 37.9693 96.9705C36.4637 100.076 35.7109 102.617 35.7109 104.593C35.7109 106.051 36.1108 107.274 36.9107 108.263C37.7105 109.204 38.9103 109.674 40.51 109.674ZM72.904 70.5048C76.3387 70.5048 79.444 69.6344 82.22 67.8935C85.043 66.1056 87.3014 63.6825 88.9952 60.6243C90.689 57.519 91.5359 54.0373 91.5359 50.1792C91.5359 46.5563 90.689 43.2393 88.9952 40.2281C87.3014 37.2169 85.043 34.8173 82.22 33.0294C79.444 31.1944 76.3387 30.277 72.904 30.277C69.4694 30.277 66.3405 31.1944 63.5175 33.0294C60.7416 34.8173 58.5067 37.2169 56.8129 40.2281C55.1191 43.2393 54.2722 46.5563 54.2722 50.1792C54.2722 54.0373 55.1191 57.4955 56.8129 60.5537C58.5067 63.612 60.7416 66.035 63.5175 67.823C66.3405 69.6109 69.4694 70.5048 72.904 70.5048Z" fill="#BDBDBD"/>
</svg>
