<svg width="146" height="146" viewBox="0 0 146 146" fill="none" xmlns="http://www.w3.org/2000/svg">
<path d="M72.904 145.808C62.8353 145.808 53.4018 143.903 44.6034 140.092C35.805 136.328 28.0653 131.105 21.3842 124.424C14.703 117.743 9.45696 110.003 5.6459 101.205C1.88189 92.4064 -0.00011643 82.9728 -0.00011643 72.9041C-0.00011643 62.8354 1.88189 53.4018 5.6459 44.6035C9.45696 35.758 14.703 28.0183 21.3842 21.3842C28.0653 14.7031 35.805 9.48055 44.6034 5.71654C53.4018 1.90548 62.8353 -4.87342e-05 72.904 -4.87342e-05C82.9728 -4.87342e-05 92.4063 1.90548 101.205 5.71654C110.05 9.48055 117.813 14.7031 124.494 21.3842C131.176 28.0183 136.398 35.758 140.162 44.6035C143.973 53.4018 145.879 62.8354 145.879 72.9041C145.879 82.9728 143.973 92.4064 140.162 101.205C136.398 110.003 131.176 117.743 124.494 124.424C117.813 131.105 110.05 136.328 101.205 140.092C92.4063 143.903 82.9728 145.808 72.904 145.808ZM37.4753 45.4504C37.193 47.0501 36.9577 48.8615 36.7695 50.8846C36.5813 52.8608 36.4872 54.5781 36.4872 56.0366C36.4872 64.1763 38.0164 71.3044 41.0746 77.4209C44.1329 83.4904 48.4145 88.2424 53.9193 91.6771C59.4712 95.0647 65.9641 96.7585 73.3981 96.7585C78.7618 96.7585 83.1374 95.8175 86.525 93.9355C89.9127 92.0064 92.4063 90.0774 94.006 88.1483C95.4175 90.0303 96.5467 92.0064 97.3936 94.0767C98.2405 96.1469 99.1109 98.5699 100.005 101.346C100.24 102.099 100.617 102.663 101.134 103.04C101.652 103.369 102.193 103.534 102.757 103.534C104.028 103.534 105.11 103.063 106.004 102.122C106.898 101.134 107.345 99.8873 107.345 98.3817C107.345 96.8761 106.757 95.1118 105.58 93.0886C104.404 91.0184 103.016 89.0658 101.416 87.2309C99.8637 85.3489 98.5228 83.8903 97.3936 82.8552C94.5236 80.1733 91.4183 78.2208 88.0777 76.9975C84.7371 75.7742 81.3966 74.8567 78.056 74.245C74.7155 73.6334 71.5396 73.0217 68.5284 72.4101C65.5642 71.7984 62.9529 70.8104 60.6945 69.4459C58.4361 68.0344 56.7658 65.8466 55.6837 62.8824C55.5425 62.4119 55.6602 62.0355 56.0366 61.7532C56.46 61.4709 56.9305 61.5415 57.4481 61.965C59.8006 63.9881 62.2472 65.4231 64.7879 66.27C67.3286 67.0699 69.9164 67.611 72.5512 67.8933C75.186 68.1756 77.8443 68.5284 80.5262 68.9519C83.2551 69.3283 86.0075 70.0811 88.7834 71.2103C91.5594 72.3395 94.3589 74.1745 97.1819 76.7152C97.7465 77.3268 98.3346 77.515 98.9463 77.2798C99.605 77.0445 100.005 76.6211 100.146 76.0094C100.24 75.5389 100.287 74.9508 100.287 74.245C100.334 73.5393 100.358 72.81 100.358 72.0572C100.358 64.1528 97.8641 58.2245 92.8768 54.2723C87.9365 50.32 81.4907 48.3439 73.5392 48.3439C70.8574 48.3439 68.0814 48.5792 65.2113 49.0497C62.3883 49.4731 59.7771 49.6849 57.3775 49.6849C54.7897 49.6849 52.1079 49.4026 49.3319 48.838C46.603 48.2263 44.0388 46.7207 41.6392 44.3212C40.8864 43.5684 40.0631 43.2625 39.1691 43.4037C38.2752 43.5448 37.7105 44.2271 37.4753 45.4504Z" fill="#BDBDBD"/>
</svg>
