<svg width="101" height="110" viewBox="0 0 101 110" fill="none" xmlns="http://www.w3.org/2000/svg">
<path d="M50.4275 109.984C43.463 109.984 36.9379 108.666 30.8521 106.03C24.7663 103.426 19.4128 99.8136 14.7915 95.1923C10.1702 90.571 6.54147 85.2175 3.90538 79.1317C1.30183 73.0459 5.88782e-05 66.5207 5.88782e-05 59.5562C5.88782e-05 54.219 0.797395 49.1095 2.39207 44.2279C3.98674 39.3462 6.24857 34.8388 9.17756 30.7057C12.1391 26.5726 15.6376 22.9601 19.6731 19.8684C20.9423 18.7619 22.2929 18.3063 23.7249 18.5016C25.1568 18.6643 26.2796 19.2989 27.0932 20.4054C27.9719 21.6421 28.2648 22.9113 27.9719 24.2131C27.679 25.5149 26.9468 26.6539 25.7752 27.6303C22.5858 30.0711 19.8033 32.9513 17.4275 36.2708C15.0518 39.5578 13.2131 43.1702 11.9113 47.108C10.6095 51.0134 9.95862 55.1628 9.95862 59.5562C9.95862 65.1539 11 70.3935 13.0829 75.2752C15.1983 80.1568 18.111 84.4527 21.821 88.1627C25.5311 91.8728 29.8269 94.7692 34.7086 96.8521C39.6228 98.9674 44.8624 100.025 50.4275 100.025C56.0251 100.025 61.2648 98.9674 66.1464 96.8521C71.0281 94.7692 75.3239 91.8728 79.034 88.1627C82.7766 84.4527 85.6893 80.1568 87.7721 75.2752C89.855 70.3935 90.8964 65.1539 90.8964 59.5562C90.8964 54.8048 90.1316 50.3137 88.602 46.0829C87.105 41.8196 84.9733 37.9631 82.207 34.5134C79.4733 31.0637 76.2514 28.1347 72.5414 25.7264C68.8639 23.2856 64.8446 21.4956 60.4837 20.3566V26.7516C60.4837 27.9232 60.2071 28.8181 59.6538 29.4365C59.1331 30.0223 58.4497 30.3152 57.6035 30.3152C56.7899 30.2826 55.9275 29.9409 55.0163 29.29L39.2485 17.9646C38.142 17.1835 37.5725 16.256 37.5399 15.182C37.5399 14.1081 38.1095 13.1806 39.2485 12.3995L54.9674 1.02526C55.9112 0.374378 56.7899 0.0489345 57.6035 0.0489345C58.4497 0.0163901 59.1331 0.309289 59.6538 0.927631C60.2071 1.51343 60.4837 2.4084 60.4837 3.61254V10.1539C66.179 11.293 71.4837 13.3433 76.3979 16.3048C81.3121 19.2664 85.6079 22.9601 89.2854 27.3862C92.9629 31.7797 95.8106 36.7101 97.8283 42.1776C99.8786 47.645 100.904 53.4379 100.904 59.5562C100.904 66.5207 99.5857 73.0459 96.9496 79.1317C94.3461 85.2175 90.7337 90.571 86.1124 95.1923C81.4911 99.8136 76.1213 103.426 70.0029 106.03C63.9171 108.666 57.392 109.984 50.4275 109.984Z" fill="#CFA05E"/>
</svg>
