<svg width="150" height="150" viewBox="0 0 150 150" fill="none" xmlns="http://www.w3.org/2000/svg">
<circle cx="75" cy="75" r="75" fill="#90C9FE"/>
<path d="M39.6562 75.1955C36.5023 76.0599 35.4096 79.9753 37.6601 82.3479C38.6661 83.4084 40.1393 83.8895 41.5773 83.6271L42.7643 83.4105C54.3384 81.298 63.5293 72.4726 66.1094 60.9937L66.2877 60.2004C66.6051 58.7885 66.1979 57.3113 65.202 56.2613C62.9439 53.8807 58.9627 54.7697 57.9318 57.8848L57.6153 58.8412C55.0163 66.6946 48.661 72.7273 40.6829 74.914L39.6562 75.1955Z" fill="#25649E"/>
<path d="M94.1291 119.879C97.0613 121.245 100.437 119.175 100.549 115.942C100.607 114.256 99.7207 112.678 98.25 111.85L95.8111 110.478C83.9404 103.801 69.5468 103.381 57.3068 109.354L55.2757 110.346C53.7707 111.08 52.7938 112.585 52.7358 114.259C52.6233 117.503 55.8595 119.809 58.8888 118.643L62.5768 117.223C71.6251 113.741 81.7004 114.087 90.4885 118.182L94.1291 119.879Z" fill="#25649E"/>
<path d="M110.244 74.7754C113.405 75.6165 114.514 79.5341 112.263 81.9075C111.27 82.9546 109.818 83.4352 108.396 83.1877L107.296 82.9961C95.8364 81.0018 86.7312 72.258 84.2748 60.889L84.1199 60.1718C83.8181 58.7754 84.2258 57.3202 85.2089 56.2837C87.4677 53.9024 91.4519 54.8077 92.4597 57.9313L92.7098 58.7065C95.2187 66.4822 101.506 72.4507 109.402 74.5514L110.244 74.7754Z" fill="#25649E"/>
</svg>
