<svg width="104" height="104" viewBox="0 0 104 104" fill="none" xmlns="http://www.w3.org/2000/svg">
<path d="M51.5625 103.125C44.4661 103.125 37.793 101.774 31.543 99.0723C25.3255 96.403 19.8568 92.7083 15.1367 87.9883C10.4167 83.2682 6.70573 77.7995 4.00391 71.582C1.33464 65.332 0 58.6589 0 51.5625C0 44.4336 1.33464 37.7604 4.00391 31.543C6.70573 25.293 10.4167 19.8079 15.1367 15.0879C19.8568 10.3678 25.3255 6.67318 31.543 4.00391C37.793 1.33464 44.4661 0 51.5625 0C58.6914 0 65.3646 1.33464 71.582 4.00391C77.832 6.67318 83.3171 10.3678 88.0371 15.0879C92.7572 19.8079 96.4518 25.293 99.1211 31.543C101.823 37.7604 103.174 44.4336 103.174 51.5625C103.174 58.6589 101.823 65.332 99.1211 71.582C96.4518 77.7995 92.7572 83.2682 88.0371 87.9883C83.3171 92.7083 77.832 96.403 71.582 99.0723C65.3646 101.774 58.6914 103.125 51.5625 103.125ZM32.7148 73.7305C35.3841 73.7305 37.6465 72.8027 39.502 70.9473C41.3574 69.0592 42.2852 66.7806 42.2852 64.1113C42.2852 63.1348 42.3828 62.4186 42.5781 61.9629C42.7734 61.4746 43.2617 61.0189 44.043 60.5957L81.9336 40.5273C81.4779 38.6393 80.2897 37.4674 78.3691 37.0117C76.4811 36.5234 74.0397 36.8164 71.0449 37.8906L51.5625 44.873C50.1302 45.3939 49.0397 46.0775 48.291 46.9238C47.5749 47.7376 47.0215 48.7956 46.6309 50.0977L46.1426 51.8066C45.9473 52.4251 45.6706 52.9297 45.3125 53.3203C44.9544 53.6784 44.2708 54.1178 43.2617 54.6387L41.0156 55.7617C40.4948 56.0547 40.0553 56.2012 39.6973 56.2012C39.0137 56.2012 38.4277 56.071 37.9395 55.8105C37.4512 55.5176 36.8164 55.2246 36.0352 54.9316C35.2865 54.6387 34.1797 54.4922 32.7148 54.4922C30.0456 54.4922 27.7832 55.4362 25.9277 57.3242C24.0723 59.2122 23.1445 61.4746 23.1445 64.1113C23.1445 66.7806 24.0723 69.0592 25.9277 70.9473C27.7832 72.8027 30.0456 73.7305 32.7148 73.7305ZM32.7148 68.6523C31.4779 68.6523 30.4036 68.2129 29.4922 67.334C28.6133 66.4225 28.1738 65.332 28.1738 64.0625C28.1738 62.8255 28.6133 61.7676 29.4922 60.8887C30.4036 59.9772 31.4779 59.5215 32.7148 59.5215C33.9518 59.5215 35.0098 59.9772 35.8887 60.8887C36.8001 61.7676 37.2559 62.8255 37.2559 64.0625C37.2559 65.332 36.8001 66.4225 35.8887 67.334C35.0098 68.2129 33.9518 68.6523 32.7148 68.6523ZM52.0508 51.8555C51.5625 51.8555 51.123 51.6764 50.7324 51.3184C50.3743 50.9603 50.1953 50.5371 50.1953 50.0488C50.1953 49.5605 50.3743 49.1536 50.7324 48.8281C51.123 48.4701 51.5625 48.291 52.0508 48.291C52.5391 48.291 52.946 48.4701 53.2715 48.8281C53.6296 49.1536 53.8086 49.5605 53.8086 50.0488C53.8086 50.5697 53.6296 51.0091 53.2715 51.3672C52.946 51.6927 52.5391 51.8555 52.0508 51.8555ZM47.4121 44.2383L44.1895 42.5293C43.3431 42.1061 42.806 41.6667 42.5781 41.2109C42.3828 40.7227 42.2852 39.9902 42.2852 39.0137C42.2852 36.3118 41.3574 34.0332 39.502 32.1777C37.6465 30.2897 35.3841 29.3457 32.7148 29.3457C30.0456 29.3457 27.7832 30.2897 25.9277 32.1777C24.0723 34.0658 23.1445 36.3444 23.1445 39.0137C23.1445 41.6504 24.0723 43.8965 25.9277 45.752C27.7832 47.6074 30.0456 48.5352 32.7148 48.5352C34.1797 48.5352 35.2865 48.4049 36.0352 48.1445C36.7839 47.8516 37.4023 47.5749 37.8906 47.3145C38.3789 47.0215 38.9811 46.875 39.6973 46.875C40.0879 46.875 40.5273 47.0052 41.0156 47.2656L44.2871 48.9746C44.6126 47.9655 45.0195 47.0866 45.5078 46.3379C45.9961 45.5566 46.6309 44.8568 47.4121 44.2383ZM32.7148 43.5547C31.4779 43.5547 30.4036 43.1152 29.4922 42.2363C28.6133 41.3249 28.1738 40.2507 28.1738 39.0137C28.1738 37.7116 28.6133 36.6211 29.4922 35.7422C30.4036 34.8633 31.4779 34.4238 32.7148 34.4238C33.9518 34.4238 35.0098 34.8633 35.8887 35.7422C36.8001 36.6211 37.2559 37.7116 37.2559 39.0137C37.2559 40.2507 36.8001 41.3249 35.8887 42.2363C35.0098 43.1152 33.9518 43.5547 32.7148 43.5547ZM53.418 58.5449L71.0449 65.0391C74.0397 66.1458 76.4811 66.4714 78.3691 66.0156C80.2897 65.5599 81.4779 64.3555 81.9336 62.4023L64.0625 52.9297L53.418 58.5449Z" fill="#8177D8"/>
</svg>
