<svg width="101" height="101" viewBox="0 0 101 101" fill="none" xmlns="http://www.w3.org/2000/svg">
<path d="M50.4275 100.855C43.463 100.855 36.9379 99.5367 30.8521 96.9006C24.7663 94.2971 19.4128 90.6847 14.7915 86.0634C10.1702 81.4421 6.54147 76.0885 3.90538 70.0028C1.30183 63.917 5.88782e-05 57.3918 5.88782e-05 50.4273C5.88782e-05 43.4629 1.30183 36.9377 3.90538 30.8519C6.54147 24.7336 10.1702 19.38 14.7915 14.7913C19.4128 10.17 24.7663 6.55758 30.8521 3.95403C36.9379 1.31794 43.463 -0.000103075 50.4275 -0.000103075C57.392 -0.000103075 63.9171 1.31794 70.0029 3.95403C76.1213 6.55758 81.4911 10.17 86.1124 14.7913C90.7337 19.38 94.3461 24.7336 96.9496 30.8519C99.5857 36.9377 100.904 43.4629 100.904 50.4273C100.904 57.3918 99.5857 63.917 96.9496 70.0028C94.3461 76.0885 90.7337 81.4421 86.1124 86.0634C81.4911 90.6847 76.1213 94.2971 70.0029 96.9006C63.9171 99.5367 57.392 100.855 50.4275 100.855ZM25.9216 31.4377C25.7264 32.5442 25.5636 33.7972 25.4335 35.1966C25.3033 36.5635 25.2382 37.7513 25.2382 38.7602C25.2382 44.3904 26.2959 49.3208 28.4113 53.5516C30.5266 57.7498 33.4882 61.0368 37.2959 63.4125C41.1361 65.7557 45.6272 66.9273 50.7692 66.9273C54.4793 66.9273 57.5059 66.2764 59.8491 64.9747C62.1923 63.6403 63.9171 62.306 65.0236 60.9717C66 62.2735 66.781 63.6403 67.3668 65.0723C67.9526 66.5042 68.5547 68.1803 69.173 70.1004C69.3358 70.6211 69.5961 71.0116 69.9541 71.272C70.3121 71.4998 70.6863 71.6137 71.0769 71.6137C71.9556 71.6137 72.7041 71.2883 73.3224 70.6374C73.9408 69.9539 74.25 69.0915 74.25 68.0501C74.25 67.0087 73.8431 65.7883 73.0295 64.3889C72.2159 62.9569 71.2559 61.6063 70.1494 60.3371C69.0754 59.0353 68.1479 58.0264 67.3668 57.3105C65.3816 55.4554 63.2337 54.1048 60.923 53.2587C58.6124 52.4125 56.3018 51.7779 53.9911 51.3549C51.6805 50.9318 49.4837 50.5087 47.4009 50.0856C45.3506 49.6625 43.5444 48.9791 41.9822 48.0353C40.4201 47.059 39.2648 45.5457 38.5163 43.4954C38.4186 43.17 38.5 42.9096 38.7604 42.7143C39.0533 42.5191 39.3787 42.5679 39.7367 42.8608C41.3639 44.2602 43.0562 45.2528 44.8136 45.8386C46.571 46.3918 48.3609 46.7661 50.1834 46.9614C52.0059 47.1566 53.8447 47.4007 55.6997 47.6936C57.5873 47.954 59.4911 48.4747 61.4112 49.2557C63.3313 50.0368 65.2677 51.306 67.2204 53.0634C67.6109 53.4865 68.0177 53.6167 68.4408 53.454C68.8964 53.2912 69.173 52.9983 69.2707 52.5753C69.3358 52.2498 69.3683 51.843 69.3683 51.3549C69.4008 50.8667 69.4171 50.3623 69.4171 49.8415C69.4171 44.3741 67.6923 40.2735 64.2426 37.5398C60.8254 34.8061 56.3668 33.4392 50.8669 33.4392C49.0118 33.4392 47.0917 33.6019 45.1065 33.9274C43.1538 34.2203 41.3476 34.3667 39.6879 34.3667C37.8979 34.3667 36.0429 34.1714 34.1228 33.7809C32.2352 33.3578 30.4616 32.3164 28.8018 30.6567C28.2811 30.1359 27.7116 29.9244 27.0932 30.022C26.4749 30.1197 26.0843 30.5916 25.9216 31.4377Z" fill="#68B36D"/>
</svg>
