<svg width="30" height="23" viewBox="0 0 30 23" fill="none" xmlns="http://www.w3.org/2000/svg">
<path d="M15.3566 5.6574C15.3566 5.09504 14.9007 4.63916 14.3383 4.63916C13.776 4.63916 13.3201 5.09504 13.3201 5.6574L13.3201 21.9493C13.3201 22.5116 13.776 22.9675 14.3383 22.9675C14.9007 22.9675 15.3566 22.5116 15.3566 21.9493L15.3566 5.6574Z" fill="white"/>
<path d="M2.98195 4.47999C2.85311 4.5001 2.74076 4.57856 2.67753 4.6926C2.61332 4.8084 2.60709 4.94759 2.66071 5.06866L4.06348 8.2362C5.26987 10.9603 8.10879 12.5821 11.0681 12.2378L14.2263 11.8703C14.3542 11.8554 14.4678 11.7814 14.5331 11.6704C14.6006 11.5556 14.6083 11.4152 14.5537 11.2938L12.9991 7.83033C11.782 5.11868 8.9015 3.55613 5.96475 4.01446L2.98195 4.47999Z" fill="white"/>
<path d="M26.155 4.64674C26.2838 4.66685 26.3962 4.74531 26.4594 4.85935C26.5236 4.97514 26.5299 5.11434 26.4762 5.2354L25.0735 8.40295C23.8671 11.127 21.0282 12.7488 18.0689 12.4045L14.9107 12.037C14.7827 12.0221 14.6692 11.9481 14.6039 11.8371C14.5364 11.7223 14.5287 11.582 14.5832 11.4605L16.1378 7.99708C17.355 5.28543 20.2354 3.72288 23.1722 4.18121L26.155 4.64674Z" fill="white"/>
</svg>
