<svg width="655" height="269" viewBox="0 0 655 269" fill="none" xmlns="http://www.w3.org/2000/svg">
<path d="M272.434 175.442C270.586 174.069 269.45 172.22 269.027 169.896C268.658 167.624 269.001 164.931 270.057 161.814L286.379 113.403L244.782 83.5317C242.088 81.6301 240.213 79.6493 239.156 77.5893C238.1 75.4764 237.942 73.3107 238.681 71.0921C239.421 68.9264 240.82 67.3154 242.88 66.2589C244.94 65.2025 247.634 64.6743 250.962 64.6743H301.909L317.439 16.3421C318.442 13.1727 319.763 10.7693 321.4 9.13186C323.091 7.44155 325.072 6.5964 327.343 6.5964C329.667 6.5964 331.648 7.44155 333.285 9.13186C334.976 10.7693 336.323 13.1727 337.326 16.3421L352.856 64.6743H403.803C407.131 64.6743 409.825 65.2025 411.885 66.2589C413.945 67.3154 415.344 68.9264 416.084 71.0921C416.823 73.3107 416.665 75.4764 415.609 77.5893C414.552 79.6493 412.677 81.6301 409.983 83.5317L368.386 113.403L384.708 161.814C385.764 164.931 386.081 167.624 385.658 169.896C385.289 172.22 384.179 174.069 382.331 175.442C380.482 176.921 378.395 177.449 376.071 177.027C373.747 176.604 371.264 175.442 368.623 173.541L327.343 143.194L286.142 173.541C283.501 175.442 281.018 176.604 278.694 177.027C276.37 177.449 274.283 176.921 272.434 175.442Z" fill="#FFD23D"/>
<path d="M36.8367 255.044C35.5031 254.053 34.684 252.72 34.3792 251.043C34.1125 249.405 34.3601 247.462 35.1221 245.214L46.8954 210.294L16.8907 188.748C14.9476 187.376 13.595 185.948 12.833 184.462C12.0709 182.938 11.9566 181.375 12.49 179.775C13.0235 178.213 14.0331 177.051 15.5191 176.289C17.005 175.527 18.9482 175.146 21.3486 175.146H58.0971L69.2989 140.283C70.0228 137.997 70.9753 136.264 72.1565 135.082C73.3757 133.863 74.8045 133.254 76.4428 133.254C78.1193 133.254 79.5481 133.863 80.7292 135.082C81.9485 136.264 82.92 137.997 83.644 140.283L94.8457 175.146H131.594C133.995 175.146 135.938 175.527 137.424 176.289C138.91 177.051 139.919 178.213 140.453 179.775C140.986 181.375 140.872 182.938 140.11 184.462C139.348 185.948 137.995 187.376 136.052 188.748L106.047 210.294L117.821 245.214C118.583 247.462 118.811 249.405 118.507 251.043C118.24 252.72 117.44 254.053 116.106 255.044C114.773 256.111 113.268 256.492 111.591 256.187C109.915 255.882 108.124 255.044 106.219 253.672L76.4428 231.783L46.7239 253.672C44.8189 255.044 43.0281 255.882 41.3517 256.187C39.6752 256.492 38.1702 256.111 36.8367 255.044Z" fill="#FFD23D"/>
<path d="M538.837 254.745C537.503 253.755 536.684 252.421 536.379 250.745C536.112 249.106 536.36 247.163 537.122 244.915L548.895 209.995L518.891 188.449C516.948 187.077 515.595 185.649 514.833 184.163C514.071 182.639 513.957 181.077 514.49 179.476C515.023 177.914 516.033 176.752 517.519 175.99C519.005 175.228 520.948 174.847 523.349 174.847H560.097L571.299 139.984C572.023 137.698 572.975 135.965 574.156 134.784C575.376 133.564 576.804 132.955 578.443 132.955C580.119 132.955 581.548 133.564 582.729 134.784C583.948 135.965 584.92 137.698 585.644 139.984L596.846 174.847H633.594C635.995 174.847 637.938 175.228 639.424 175.99C640.91 176.752 641.919 177.914 642.453 179.476C642.986 181.077 642.872 182.639 642.11 184.163C641.348 185.649 639.995 187.077 638.052 188.449L608.047 209.995L619.821 244.915C620.583 247.163 620.811 249.106 620.507 250.745C620.24 252.421 619.44 253.755 618.106 254.745C616.773 255.812 615.268 256.193 613.591 255.888C611.915 255.583 610.124 254.745 608.219 253.374L578.443 231.484L548.724 253.374C546.819 254.745 545.028 255.583 543.352 255.888C541.675 256.193 540.17 255.812 538.837 254.745Z" fill="#FFD23D"/>
</svg>
