<svg width="123" height="123" viewBox="0 0 123 123" fill="none" xmlns="http://www.w3.org/2000/svg">
<path d="M61.2967 23.6049C59.4112 23.6049 57.7795 22.916 56.4016 21.5381C55.06 20.1603 54.3892 18.5467 54.3892 16.6975V6.96182C54.3892 5.07634 55.06 3.44466 56.4016 2.0668C57.7795 0.688946 59.4112 1.67936e-05 61.2967 1.67936e-05C63.1821 1.67936e-05 64.7957 0.688946 66.1373 2.0668C67.5151 3.44466 68.2041 5.07634 68.2041 6.96182V16.6975C68.2041 18.5467 67.5151 20.1603 66.1373 21.5381C64.7957 22.916 63.1821 23.6049 61.2967 23.6049ZM88.0561 34.8634C86.7145 33.5218 86.0256 31.8902 85.9893 29.9684C85.9531 28.0104 86.6057 26.3787 87.9473 25.0734L94.8004 18.166C96.1057 16.8244 97.7192 16.1355 99.641 16.0992C101.599 16.0629 103.231 16.7156 104.536 18.0572C105.878 19.3625 106.548 20.9942 106.548 22.9522C106.548 24.874 105.914 26.5057 104.645 27.8472L97.7918 34.7003C96.4502 36.0419 94.8004 36.7308 92.8424 36.7671C90.9206 36.7671 89.3252 36.1325 88.0561 34.8634ZM99.0971 61.2966C99.0971 59.4111 99.7679 57.7975 101.109 56.4559C102.487 55.0781 104.119 54.3891 106.005 54.3891H115.686C117.571 54.3891 119.185 55.0781 120.526 56.4559C121.904 57.7975 122.593 59.4111 122.593 61.2966C122.593 63.1458 121.904 64.7593 120.526 66.1372C119.185 67.5151 117.571 68.204 115.686 68.204H106.005C104.119 68.204 102.487 67.5151 101.109 66.1372C99.7679 64.7593 99.0971 63.1458 99.0971 61.2966ZM87.9473 87.9472C89.2527 86.6056 90.8662 85.9167 92.788 85.8804C94.746 85.8442 96.3595 86.4787 97.6286 87.7841L104.59 94.6915C105.932 95.9968 106.603 97.6104 106.603 99.5321C106.639 101.49 106.023 103.122 104.754 104.427C103.412 105.732 101.762 106.403 99.8042 106.44C97.8824 106.476 96.2689 105.841 94.9635 104.536L88.0561 97.6285C86.7145 96.3232 86.0256 94.7096 85.9893 92.7879C85.9531 90.8299 86.6057 89.2163 87.9473 87.9472ZM61.2967 98.9882C63.1821 98.9882 64.7957 99.659 66.1373 101.001C67.5151 102.378 68.2041 104.01 68.2041 105.896V115.631C68.2041 117.517 67.5151 119.13 66.1373 120.472C64.7957 121.85 63.1821 122.539 61.2967 122.539C59.4112 122.539 57.7795 121.85 56.4016 120.472C55.06 119.13 54.3892 117.517 54.3892 115.631V105.896C54.3892 104.01 55.06 102.378 56.4016 101.001C57.7795 99.659 59.4112 98.9882 61.2967 98.9882ZM34.7004 87.9472C35.9695 89.2163 36.5859 90.8299 36.5496 92.7879C36.5496 94.7096 35.8788 96.3232 34.5372 97.6285L27.6298 104.536C26.3607 105.805 24.7472 106.421 22.7892 106.385C20.8311 106.385 19.1813 105.714 17.8397 104.373C16.5707 103.104 15.9361 101.49 15.9361 99.5321C15.9724 97.6104 16.6432 95.9968 17.9485 94.6915L24.9103 87.7841C26.2157 86.4787 27.8292 85.8442 29.751 85.8804C31.709 85.9167 33.3588 86.6056 34.7004 87.9472ZM23.5506 61.2966C23.5506 63.1458 22.8617 64.7593 21.4838 66.1372C20.106 67.5151 18.4924 68.204 16.6432 68.204H6.90753C5.0583 68.204 3.44476 67.5151 2.0669 66.1372C0.689041 64.7593 0.000112005 63.1458 0.000112005 61.2966C0.000112005 59.4111 0.689041 57.7975 2.0669 56.4559C3.44476 55.0781 5.0583 54.3891 6.90753 54.3891H16.6432C18.4924 54.3891 20.106 55.0781 21.4838 56.4559C22.8617 57.7975 23.5506 59.4111 23.5506 61.2966ZM34.5372 34.8634C33.2319 36.1325 31.6183 36.7671 29.6966 36.7671C27.7748 36.7308 26.1613 36.0419 24.8559 34.7003L17.9485 27.7929C16.6432 26.4875 16.0086 24.874 16.0449 22.9522C16.0812 20.9942 16.7701 19.3625 18.1117 18.0572C19.3808 16.7156 20.9943 16.0811 22.9523 16.1536C24.9103 16.1898 26.542 16.8606 27.8473 18.166L34.7004 25.0734C35.9695 26.3787 36.5859 28.0104 36.5496 29.9684C36.5496 31.8902 35.8788 33.5218 34.5372 34.8634ZM61.2967 89.9052C57.3444 89.9052 53.6278 89.1801 50.1469 87.7297C46.7022 86.243 43.6565 84.1763 41.0095 81.5293C38.3988 78.8824 36.3502 75.8366 34.8635 72.3919C33.3769 68.9473 32.6336 65.2488 32.6336 61.2966C32.6336 57.3443 33.3769 53.6458 34.8635 50.2012C36.3502 46.7203 38.3988 43.6745 41.0095 41.0638C43.6565 38.4169 46.7022 36.3682 50.1469 34.9178C53.6278 33.4312 57.3444 32.6879 61.2967 32.6879C65.2489 32.6879 68.9474 33.4312 72.392 34.9178C75.8729 36.3682 78.9187 38.4169 81.5294 41.0638C84.1764 43.6745 86.225 46.7203 87.6754 50.2012C89.162 53.6458 89.9053 57.3443 89.9053 61.2966C89.9053 65.2488 89.162 68.9473 87.6754 72.3919C86.225 75.8366 84.1764 78.8824 81.5294 81.5293C78.9187 84.1763 75.8729 86.243 72.392 87.7297C68.9474 89.1801 65.2489 89.9052 61.2967 89.9052ZM61.2967 76.0904C64.0161 76.0904 66.4999 75.4196 68.748 74.078C70.9961 72.7364 72.7728 70.9597 74.0781 68.7479C75.4197 66.4998 76.0905 64.016 76.0905 61.2966C76.0905 58.5771 75.4197 56.0933 74.0781 53.8453C72.7728 51.5972 70.9961 49.8205 68.748 48.5151C66.4999 47.1735 64.0161 46.5027 61.2967 46.5027C58.5772 46.5027 56.0934 47.1735 53.8453 48.5151C51.5973 49.8205 49.8024 51.5972 48.4608 53.8453C47.1555 56.0933 46.5028 58.5771 46.5028 61.2966C46.5028 64.016 47.1555 66.4998 48.4608 68.7479C49.8024 70.9597 51.5973 72.7364 53.8453 74.078C56.0934 75.4196 58.5772 76.0904 61.2967 76.0904Z" fill="#FFC573"/>
</svg>
