<svg width="114" height="114" viewBox="0 0 114 114" fill="none" xmlns="http://www.w3.org/2000/svg">
<path d="M56.9336 21.582C55.306 21.582 53.89 20.9961 52.6855 19.8242C51.5137 18.6198 50.9277 17.2038 50.9277 15.5762V6.05469C50.9277 4.42708 51.5137 3.01107 52.6855 1.80664C53.89 0.602214 55.306 0 56.9336 0C58.5612 0 59.9609 0.602214 61.1328 1.80664C62.3372 3.01107 62.9395 4.42708 62.9395 6.05469V15.5762C62.9395 17.2038 62.3372 18.6198 61.1328 19.8242C59.9609 20.9961 58.5612 21.582 56.9336 21.582ZM81.9824 32.1289C80.8105 30.957 80.2083 29.541 80.1758 27.8809C80.1758 26.1882 80.7454 24.7721 81.8848 23.6328L88.6719 16.7969C89.8112 15.6576 91.2109 15.0879 92.8711 15.0879C94.5638 15.0553 95.9798 15.6087 97.1191 16.748C98.291 17.8874 98.877 19.3197 98.877 21.0449C98.9095 22.7376 98.3561 24.1374 97.2168 25.2441L90.4785 32.0312C89.3392 33.2031 87.9232 33.8053 86.2305 33.8379C84.5378 33.8379 83.1217 33.2682 81.9824 32.1289ZM92.334 56.9824C92.334 55.3223 92.9199 53.9062 94.0918 52.7344C95.2962 51.5299 96.7122 50.9277 98.3398 50.9277H107.861C109.489 50.9277 110.889 51.5299 112.061 52.7344C113.265 53.9062 113.867 55.3223 113.867 56.9824C113.867 58.61 113.265 60.0098 112.061 61.1816C110.889 62.3535 109.489 62.9395 107.861 62.9395H98.3398C96.7122 62.9395 95.2962 62.3535 94.0918 61.1816C92.9199 60.0098 92.334 58.61 92.334 56.9824ZM81.8848 81.9336C83.0566 80.7943 84.4727 80.2246 86.1328 80.2246C87.8255 80.1921 89.2415 80.7292 90.3809 81.8359L97.168 88.623C98.3398 89.7624 98.9258 91.1621 98.9258 92.8223C98.9583 94.515 98.4049 95.931 97.2656 97.0703C96.0938 98.2096 94.6615 98.7956 92.9688 98.8281C91.3086 98.8607 89.9089 98.3236 88.7695 97.2168L81.9824 90.3809C80.8105 89.2415 80.2083 87.8418 80.1758 86.1816C80.1758 84.4889 80.7454 83.0729 81.8848 81.9336ZM56.9336 92.334C58.5612 92.334 59.9609 92.9199 61.1328 94.0918C62.3372 95.2962 62.9395 96.7122 62.9395 98.3398V107.861C62.9395 109.489 62.3372 110.905 61.1328 112.109C59.9609 113.314 58.5612 113.916 56.9336 113.916C55.306 113.916 53.89 113.314 52.6855 112.109C51.5137 110.905 50.9277 109.489 50.9277 107.861V98.3398C50.9277 96.7122 51.5137 95.2962 52.6855 94.0918C53.89 92.9199 55.306 92.334 56.9336 92.334ZM31.9824 81.9336C33.0892 83.0729 33.6263 84.4889 33.5938 86.1816C33.5938 87.8418 33.0241 89.2415 31.8848 90.3809L25.0977 97.168C23.9583 98.2747 22.5423 98.8118 20.8496 98.7793C19.1569 98.7793 17.7246 98.2096 16.5527 97.0703C15.446 95.8984 14.8926 94.4661 14.8926 92.7734C14.9251 91.1133 15.5273 89.7135 16.6992 88.5742L23.4375 81.8359C24.5768 80.7292 25.9928 80.1921 27.6855 80.2246C29.3783 80.2246 30.8105 80.7943 31.9824 81.9336ZM21.582 56.9824C21.582 58.61 20.9798 60.0098 19.7754 61.1816C18.571 62.3535 17.1549 62.9395 15.5273 62.9395H6.00586C4.37826 62.9395 2.96224 62.3535 1.75781 61.1816C0.585938 60.0098 0 58.61 0 56.9824C0 55.3223 0.585938 53.9062 1.75781 52.7344C2.96224 51.5299 4.37826 50.9277 6.00586 50.9277H15.5273C17.1549 50.9277 18.571 51.5299 19.7754 52.7344C20.9798 53.9062 21.582 55.3223 21.582 56.9824ZM31.8848 32.1289C30.7454 33.2682 29.3294 33.8379 27.6367 33.8379C25.944 33.8053 24.528 33.2031 23.3887 32.0312L16.6504 25.2441C15.5436 24.1374 14.9902 22.7376 14.9902 21.0449C15.0228 19.3197 15.6087 17.8874 16.748 16.748C17.8874 15.6087 19.3034 15.0553 20.9961 15.0879C22.6888 15.1204 24.1048 15.6901 25.2441 16.7969L31.9824 23.6328C33.0892 24.7396 33.6263 26.1556 33.5938 27.8809C33.5938 29.5736 33.0241 30.9896 31.8848 32.1289ZM56.9336 83.5938C53.2552 83.5938 49.8047 82.9102 46.582 81.543C43.3919 80.1432 40.5599 78.2227 38.0859 75.7812C35.6445 73.3398 33.724 70.5078 32.3242 67.2852C30.957 64.0625 30.2734 60.6283 30.2734 56.9824C30.2734 53.2715 30.957 49.821 32.3242 46.6309C33.724 43.4082 35.6445 40.5762 38.0859 38.1348C40.5599 35.6934 43.3919 33.7891 46.582 32.4219C49.8047 31.0221 53.2552 30.3223 56.9336 30.3223C60.612 30.3223 64.0625 31.0221 67.2852 32.4219C70.5078 33.7891 73.3398 35.6934 75.7812 38.1348C78.2227 40.5762 80.127 43.4082 81.4941 46.6309C82.8939 49.821 83.5938 53.2715 83.5938 56.9824C83.5938 60.6283 82.8939 64.0625 81.4941 67.2852C80.127 70.5078 78.2227 73.3398 75.7812 75.7812C73.3398 78.2227 70.5078 80.1432 67.2852 81.543C64.0625 82.9102 60.612 83.5938 56.9336 83.5938ZM56.9336 71.7773C59.668 71.7773 62.1582 71.11 64.4043 69.7754C66.6504 68.4408 68.4408 66.6667 69.7754 64.4531C71.11 62.207 71.7773 59.7168 71.7773 56.9824C71.7773 54.248 71.11 51.7578 69.7754 49.5117C68.4408 47.2656 66.6504 45.4753 64.4043 44.1406C62.1582 42.806 59.668 42.1387 56.9336 42.1387C54.1992 42.1387 51.709 42.806 49.4629 44.1406C47.2168 45.4753 45.4264 47.2656 44.0918 49.5117C42.7572 51.7578 42.0898 54.248 42.0898 56.9824C42.0898 59.7168 42.7572 62.207 44.0918 64.4531C45.4264 66.6667 47.2168 68.4408 49.4629 69.7754C51.709 71.11 54.1992 71.7773 56.9336 71.7773Z" fill="white"/>
</svg>
