<svg width="52" height="109" viewBox="0 0 52 109" fill="none" xmlns="http://www.w3.org/2000/svg">
<path d="M25.5859 108.496C22.0378 108.496 18.7174 107.829 15.625 106.494C12.5326 105.192 9.81445 103.369 7.4707 101.025C5.12695 98.6816 3.28776 95.9635 1.95312 92.8711C0.651042 89.8112 0 86.5234 0 83.0078C0 79.2969 0.748698 75.8301 2.24609 72.6074C3.74349 69.3848 5.95703 66.4551 8.88672 63.8184C9.40755 63.3301 9.74935 62.8906 9.91211 62.5C10.0749 62.1094 10.1562 61.556 10.1562 60.8398V16.6992C10.1562 13.4115 10.8073 10.5143 12.1094 8.00781C13.4115 5.5013 15.2181 3.54818 17.5293 2.14844C19.8405 0.716146 22.526 0 25.5859 0C28.6133 0 31.2663 0.716146 33.5449 2.14844C35.8561 3.54818 37.6465 5.5013 38.916 8.00781C40.2181 10.5143 40.8691 13.4115 40.8691 16.6992V60.8398C40.8691 61.556 40.9505 62.1094 41.1133 62.5C41.276 62.8906 41.6178 63.3301 42.1387 63.8184C45.0684 66.4551 47.2819 69.3848 48.7793 72.6074C50.2767 75.8301 51.0254 79.2969 51.0254 83.0078C51.0254 86.5234 50.3581 89.8112 49.0234 92.8711C47.7214 95.9635 45.8984 98.6816 43.5547 101.025C41.2435 103.369 38.5417 105.192 35.4492 106.494C32.3568 107.829 29.069 108.496 25.5859 108.496ZM25.5859 101.416C28.9388 101.416 31.9987 100.586 34.7656 98.9258C37.5326 97.2656 39.7461 95.0358 41.4062 92.2363C43.0664 89.4694 43.8965 86.3932 43.8965 83.0078C43.8965 79.9479 43.1966 77.0996 41.7969 74.4629C40.3971 71.8262 38.3952 69.6452 35.791 67.9199C35.0423 67.3991 34.5052 66.862 34.1797 66.3086C33.8542 65.7552 33.6914 64.974 33.6914 63.9648V16.9922C33.6914 14.0625 32.9264 11.7025 31.3965 9.91211C29.8991 8.08919 27.9622 7.17773 25.5859 7.17773C23.112 7.17773 21.11 8.08919 19.5801 9.91211C18.0827 11.7025 17.334 14.0625 17.334 16.9922V63.9648C17.334 64.974 17.1712 65.7552 16.8457 66.3086C16.5202 66.862 15.9831 67.3991 15.2344 67.9199C12.6302 69.6452 10.6283 71.8262 9.22852 74.4629C7.82878 77.0996 7.12891 79.9479 7.12891 83.0078C7.12891 86.3932 7.95898 89.4694 9.61914 92.2363C11.2793 95.0358 13.4928 97.2656 16.2598 98.9258C19.0592 100.586 22.168 101.416 25.5859 101.416ZM25.5371 94.8242C23.3561 94.8242 21.3704 94.2871 19.5801 93.2129C17.7897 92.1712 16.3574 90.7552 15.2832 88.9648C14.2415 87.1419 13.7207 85.14 13.7207 82.959C13.7207 80.6803 14.3066 78.6458 15.4785 76.8555C16.6504 75.0326 18.1641 73.6003 20.0195 72.5586C20.8333 72.1354 21.3867 71.696 21.6797 71.2402C22.0052 70.7845 22.168 69.9544 22.168 68.75V51.9043C22.168 50.9928 22.4935 50.2116 23.1445 49.5605C23.7956 48.877 24.5931 48.5352 25.5371 48.5352C26.4486 48.5352 27.2298 48.877 27.8809 49.5605C28.5319 50.2116 28.8574 50.9928 28.8574 51.9043V68.75C28.8574 69.9544 29.0039 70.7845 29.2969 71.2402C29.6224 71.696 30.1921 72.1354 31.0059 72.5586C32.8613 73.6003 34.375 75.0326 35.5469 76.8555C36.7188 78.6458 37.3047 80.6803 37.3047 82.959C37.3047 85.14 36.7676 87.1419 35.6934 88.9648C34.6517 90.7552 33.2357 92.1712 31.4453 93.2129C29.6549 94.2871 27.6855 94.8242 25.5371 94.8242ZM25.5371 43.6523C24.5931 43.6523 23.7956 43.3268 23.1445 42.6758C22.4935 41.9922 22.168 41.1947 22.168 40.2832C22.168 39.3717 22.4935 38.5905 23.1445 37.9395C23.7956 37.2559 24.5931 36.9141 25.5371 36.9141C26.4486 36.9141 27.2298 37.2559 27.8809 37.9395C28.5319 38.5905 28.8574 39.3717 28.8574 40.2832C28.8574 41.1947 28.5319 41.9922 27.8809 42.6758C27.2298 43.3268 26.4486 43.6523 25.5371 43.6523ZM25.5371 31.9824C24.5931 31.9824 23.7956 31.6569 23.1445 31.0059C22.4935 30.3548 22.168 29.5573 22.168 28.6133C22.168 27.7018 22.4935 26.9206 23.1445 26.2695C23.7956 25.5859 24.5931 25.2441 25.5371 25.2441C26.4486 25.2441 27.2298 25.5859 27.8809 26.2695C28.5319 26.9206 28.8574 27.7018 28.8574 28.6133C28.8574 29.5573 28.5319 30.3548 27.8809 31.0059C27.2298 31.6569 26.4486 31.9824 25.5371 31.9824ZM25.5371 20.3613C24.5931 20.3613 23.7956 20.0358 23.1445 19.3848C22.4935 18.7337 22.168 17.9362 22.168 16.9922C22.168 16.0807 22.4935 15.2995 23.1445 14.6484C23.7956 13.9648 24.5931 13.623 25.5371 13.623C26.4486 13.623 27.2298 13.9648 27.8809 14.6484C28.5319 15.2995 28.8574 16.0807 28.8574 16.9922C28.8574 17.9362 28.5319 18.7337 27.8809 19.3848C27.2298 20.0358 26.4486 20.3613 25.5371 20.3613Z" fill="#5EA0CF"/>
</svg>
