<svg width="110" height="100" viewBox="0 0 110 100" fill="none" xmlns="http://www.w3.org/2000/svg">
<path d="M59.3262 21.2402C60.4329 21.2402 61.377 21.6309 62.1582 22.4121C62.9395 23.1934 63.3301 24.1374 63.3301 25.2441V58.9355L58.8867 45.3125L74.9512 67.041C75.6999 68.0827 76.0254 69.1569 75.9277 70.2637C75.8626 71.3379 75.3743 72.2005 74.4629 72.8516C73.4538 73.5677 72.3958 73.8444 71.2891 73.6816C70.1823 73.4863 69.1895 72.819 68.3105 71.6797L56.4941 56.1035C56.071 55.5501 55.7617 55.013 55.5664 54.4922C55.3711 53.9714 55.2734 53.418 55.2734 52.832V25.2441C55.2734 24.1374 55.6641 23.1934 56.4453 22.4121C57.2266 21.6309 58.1868 21.2402 59.3262 21.2402ZM59.3262 99.6094C53.8249 99.6094 48.5677 98.7467 43.5547 97.0215C38.5417 95.3288 33.9355 92.9199 29.7363 89.7949C25.5697 86.7025 21.9889 83.0404 18.9941 78.8086C18.1478 77.7344 17.8385 76.6113 18.0664 75.4395C18.2943 74.235 18.8965 73.3236 19.873 72.7051C20.9147 72.0866 21.9564 71.9238 22.998 72.2168C24.0723 72.4772 24.9837 73.112 25.7324 74.1211C28.2064 77.5716 31.1686 80.5827 34.6191 83.1543C38.1022 85.7259 41.9271 87.7279 46.0938 89.1602C50.293 90.5924 54.7038 91.3086 59.3262 91.3086C65.0553 91.3086 70.4264 90.2344 75.4395 88.0859C80.4525 85.9375 84.8633 82.959 88.6719 79.1504C92.4805 75.3418 95.459 70.931 97.6074 65.918C99.7559 60.9049 100.83 55.5339 100.83 49.8047C100.83 44.0755 99.7559 38.7044 97.6074 33.6914C95.459 28.6458 92.4805 24.235 88.6719 20.459C84.8633 16.6504 80.4525 13.6719 75.4395 11.5234C70.4264 9.375 65.0553 8.30078 59.3262 8.30078C53.5645 8.30078 48.1771 9.375 43.1641 11.5234C38.151 13.6719 33.7402 16.6504 29.9316 20.459C26.1556 24.235 23.1934 28.6458 21.0449 33.6914C18.8965 38.7044 17.8223 44.0755 17.8223 49.8047H9.52148C9.52148 42.9362 10.8073 36.4909 13.3789 30.4688C15.9505 24.4466 19.515 19.1569 24.0723 14.5996C28.6621 10.0098 33.9681 6.42904 39.9902 3.85742C46.0124 1.28581 52.4577 0 59.3262 0C66.1947 0 72.64 1.28581 78.6621 3.85742C84.6842 6.42904 89.974 10.0098 94.5312 14.5996C99.0885 19.1569 102.653 24.4466 105.225 30.4688C107.829 36.4909 109.131 42.9362 109.131 49.8047C109.131 56.6732 107.829 63.1185 105.225 69.1406C102.653 75.1628 99.0885 80.4525 94.5312 85.0098C89.974 89.5671 84.6842 93.1315 78.6621 95.7031C72.64 98.3073 66.1947 99.6094 59.3262 99.6094ZM3.51562 40.3809H25.9277C27.0671 40.3809 27.9297 40.625 28.5156 41.1133C29.1016 41.569 29.3783 42.1875 29.3457 42.9688C29.3457 43.7174 29.0202 44.5475 28.3691 45.459L17.4805 61.0352C16.6992 62.1419 15.7878 62.7116 14.7461 62.7441C13.7044 62.7441 12.7767 62.1745 11.9629 61.0352L1.02539 45.5078C0.374349 44.5964 0.0488281 43.75 0.0488281 42.9688C0.016276 42.1875 0.292969 41.569 0.878906 41.1133C1.46484 40.625 2.34375 40.3809 3.51562 40.3809Z" fill="#FFC573"/>
</svg>
