<svg width="131" height="99" viewBox="0 0 131 99" fill="none" xmlns="http://www.w3.org/2000/svg">
<path d="M21.1914 98.0469C17.2526 98.0469 13.6882 97.0866 10.498 95.166C7.30794 93.278 4.7526 90.7227 2.83203 87.5C0.94401 84.3099 0 80.7454 0 76.8066C0 72.8678 0.94401 69.3034 2.83203 66.1133C4.7526 62.8906 7.30794 60.3353 10.498 58.4473C13.6882 56.5267 17.2526 55.5664 21.1914 55.5664C23.6328 55.5664 25.6185 55.7617 27.1484 56.1523C28.6784 56.5104 29.9316 56.9499 30.9082 57.4707C31.9173 57.959 32.8451 58.3984 33.6914 58.7891C34.5378 59.1471 35.5143 59.3262 36.6211 59.3262C37.5 59.3262 38.5579 59.0169 39.7949 58.3984L44.3848 55.957C46.5983 54.7526 48.1283 53.7435 48.9746 52.9297C49.8535 52.1159 50.4883 50.9928 50.8789 49.5605L51.9531 45.8008C52.7669 42.7734 54.0039 40.3971 55.6641 38.6719C57.3242 36.9141 59.7493 35.4492 62.9395 34.2773L106.006 18.75C112.581 16.4062 118.001 15.7389 122.266 16.748C126.562 17.7572 129.215 20.3613 130.225 24.5605L46.3867 68.9941C45.2474 69.6126 44.3848 70.2637 43.7988 70.9473C43.2454 71.5983 42.8874 72.3958 42.7246 73.3398C42.5618 74.2839 42.4805 75.4395 42.4805 76.8066C42.4805 80.7454 41.5202 84.3099 39.5996 87.5C37.7116 90.7227 35.1562 93.278 31.9336 95.166C28.7435 97.0866 25.1628 98.0469 21.1914 98.0469ZM21.1914 86.8164C23.0469 86.8164 24.7233 86.3607 26.2207 85.4492C27.7507 84.5378 28.9551 83.3333 29.834 81.8359C30.7454 80.306 31.2012 78.6133 31.2012 76.7578C31.2012 74.9349 30.7454 73.2747 29.834 71.7773C28.9551 70.2474 27.7507 69.0267 26.2207 68.1152C24.7233 67.2038 23.0469 66.748 21.1914 66.748C19.3685 66.748 17.7083 67.2038 16.2109 68.1152C14.7135 69.0267 13.5254 70.2474 12.6465 71.7773C11.7676 73.2747 11.3281 74.9349 11.3281 76.7578C11.3281 78.6133 11.7676 80.306 12.6465 81.8359C13.5254 83.3333 14.7135 84.5378 16.2109 85.4492C17.7083 86.3607 19.3685 86.8164 21.1914 86.8164ZM63.8672 49.7559C65.0065 49.7559 65.9831 49.3815 66.7969 48.6328C67.6107 47.8516 68.0176 46.8913 68.0176 45.752C68.0176 44.6126 67.6107 43.6523 66.7969 42.8711C65.9831 42.0898 65.0065 41.6992 63.8672 41.6992C62.8255 41.6992 61.8978 42.0898 61.084 42.8711C60.2702 43.6523 59.8633 44.6126 59.8633 45.752C59.8633 46.8587 60.2702 47.8027 61.084 48.584C61.8978 49.3652 62.8255 49.7559 63.8672 49.7559ZM21.1914 42.5293C17.2526 42.5293 13.6882 41.5853 10.498 39.6973C7.30794 37.7767 4.7526 35.2214 2.83203 32.0312C0.94401 28.8086 0 25.2441 0 21.3379C0 17.3991 0.94401 13.8184 2.83203 10.5957C4.7526 7.37305 7.30794 4.80143 10.498 2.88086C13.6882 0.960286 17.2526 0 21.1914 0C25.1302 0 28.7109 0.960286 31.9336 2.88086C35.1562 4.76888 37.7116 7.32422 39.5996 10.5469C41.5202 13.7695 42.4805 17.3665 42.4805 21.3379C42.4805 22.8353 42.5781 24.056 42.7734 25C42.9688 25.9115 43.3594 26.6927 43.9453 27.3438C44.5638 27.9948 45.4915 28.6458 46.7285 29.2969L55.2734 33.8379V34.2773C53.5807 35.5143 52.2786 36.8978 51.3672 38.4277C50.4557 39.9577 49.6419 41.9759 48.9258 44.4824H48.4375C48.0794 44.2546 47.6562 44.0104 47.168 43.75C46.6797 43.457 46.1426 43.1478 45.5566 42.8223L39.7949 39.6973C38.6882 39.1113 37.6302 38.8184 36.6211 38.8184C35.4818 38.8184 34.4727 39.0137 33.5938 39.4043C32.7148 39.7624 31.7871 40.1855 30.8105 40.6738C29.834 41.1621 28.597 41.6016 27.0996 41.9922C25.6022 42.3503 23.6328 42.5293 21.1914 42.5293ZM21.1914 31.2988C23.0469 31.2988 24.7233 30.8431 26.2207 29.9316C27.7507 29.0202 28.9551 27.8158 29.834 26.3184C30.7454 24.7884 31.2012 23.112 31.2012 21.2891C31.2012 19.4336 30.7454 17.7572 29.834 16.2598C28.9551 14.7298 27.7507 13.5091 26.2207 12.5977C24.7233 11.6862 23.0469 11.2305 21.1914 11.2305C19.3685 11.2305 17.7083 11.6862 16.2109 12.5977C14.7135 13.5091 13.5254 14.7298 12.6465 16.2598C11.7676 17.7572 11.3281 19.4336 11.3281 21.2891C11.3281 23.112 11.7676 24.7884 12.6465 26.3184C13.5254 27.8158 14.7135 29.0202 16.2109 29.9316C17.7083 30.8431 19.3685 31.2988 21.1914 31.2988ZM106.006 79.0039L65.0391 63.8672V63.0859L88.0859 50.8789L130.225 73.0957C129.215 77.4251 126.579 80.1107 122.314 81.1523C118.05 82.1615 112.614 81.4453 106.006 79.0039Z" fill="white"/>
</svg>
