<svg width="87" height="94" viewBox="0 0 87 94" fill="none" xmlns="http://www.w3.org/2000/svg">
<path d="M1.65981 39.9807L38.8092 1.95264C40.1435 0.650865 41.6242 -2.17631e-05 43.2515 -2.17631e-05C44.0976 -2.17631e-05 44.8787 0.178972 45.5947 0.53696C46.3432 0.862403 47.0429 1.3343 47.6938 1.95264L84.8431 40.0295C85.9496 41.136 86.5029 42.4703 86.5029 44.0325C86.5029 45.0739 86.2425 46.0339 85.7218 46.9126C85.2337 47.7588 84.5665 48.4422 83.7203 48.9629C82.8742 49.4511 81.9141 49.6952 80.8402 49.6952C79.278 49.6952 77.9112 49.1256 76.7396 47.9866L40.9083 11.2278H45.6435L9.76335 47.9866C8.59175 49.1256 7.22489 49.6952 5.66276 49.6952C4.5888 49.6952 3.62874 49.4511 2.78259 48.9629C1.93644 48.4422 1.25301 47.7588 0.732296 46.9126C0.244131 46.0339 4.88199e-05 45.0739 4.88199e-05 44.0325C4.88199e-05 43.2189 0.130226 42.4866 0.390581 41.8357C0.68348 41.1523 1.10656 40.5339 1.65981 39.9807ZM1.65981 83.6226L38.8092 45.5946C40.1435 44.2928 41.6242 43.6419 43.2515 43.6419C44.0976 43.6419 44.895 43.8046 45.6435 44.1301C46.392 44.4555 47.0754 44.9437 47.6938 45.5946L84.8431 83.6226C85.9496 84.7617 86.5029 86.096 86.5029 87.6256C86.5029 88.667 86.2425 89.6271 85.7218 90.5058C85.2337 91.3845 84.5665 92.0679 83.7203 92.5561C82.8742 93.0768 81.9141 93.3371 80.8402 93.3371C79.278 93.3371 77.9112 92.7513 76.7396 91.5797L40.9083 54.8697H45.6435L9.76335 91.5797C8.59175 92.7513 7.22489 93.3371 5.66276 93.3371C4.5888 93.3371 3.62874 93.0768 2.78259 92.5561C1.93644 92.0679 1.25301 91.3845 0.732296 90.5058C0.244131 89.6271 4.88199e-05 88.667 4.88199e-05 87.6256C4.88199e-05 86.8445 0.130226 86.1123 0.390581 85.4289C0.68348 84.778 1.10656 84.1759 1.65981 83.6226Z" fill="#5EA0CF"/>
</svg>
