<svg width="100" height="100" viewBox="0 0 100 100" fill="none" xmlns="http://www.w3.org/2000/svg">
<path d="M51.8555 88.8672C50.6836 88.8672 49.4954 88.5254 48.291 87.8418C47.1191 87.1908 46.1426 86.3444 45.3613 85.3027C44.6126 84.2936 44.2383 83.2357 44.2383 82.1289C44.2383 80.4362 44.5475 78.9225 45.166 77.5879C45.8171 76.2533 46.1263 74.8372 46.0938 73.3398C46.0938 72.7214 45.2148 71.7936 43.457 70.5566C41.6992 69.2871 39.388 67.5781 36.5234 65.4297C33.7565 63.3789 32.373 60.9375 32.373 58.1055C32.373 56.6081 32.6009 55.306 33.0566 54.1992C33.5124 53.0924 33.7402 52.2786 33.7402 51.7578C33.7402 51.3997 33.5124 51.0254 33.0566 50.6348C32.6009 50.2116 31.9173 49.5931 31.0059 48.7793L23.2422 41.9434C19.3034 38.4603 16.6016 35.2376 15.1367 32.2754C13.7044 29.3132 13.1348 26.5788 13.4277 24.0723C13.7533 21.5332 14.5996 19.1732 15.9668 16.9922L20.752 17.9688C19.4499 20.1497 18.6523 22.2331 18.3594 24.2188C18.0664 26.2044 18.5384 28.304 19.7754 30.5176C21.0124 32.7311 23.2585 35.3027 26.5137 38.2324L34.3262 45.2148C34.4889 45.3125 34.6354 45.4264 34.7656 45.5566C34.8958 45.6868 35.0423 45.8171 35.2051 45.9473C36.377 46.9564 37.2396 47.8841 37.793 48.7305C38.3789 49.5443 38.6719 50.5046 38.6719 51.6113C38.6719 52.36 38.4277 53.5807 37.9395 55.2734C37.5163 56.5755 37.3047 57.5195 37.3047 58.1055C37.3047 59.2448 38.0371 60.3678 39.502 61.4746C40.0228 61.8652 40.5436 62.2559 41.0645 62.6465C41.6178 63.0371 42.1549 63.4115 42.6758 63.7695C45.5404 65.7878 47.64 67.4805 48.9746 68.8477C50.3092 70.1823 50.9928 71.6471 51.0254 73.2422C51.0579 74.4141 50.9277 75.5208 50.6348 76.5625C50.3743 77.6042 50.1139 78.5156 49.8535 79.2969C49.5605 80.1432 49.3652 80.7292 49.2676 81.0547C49.2025 81.3802 49.1699 81.6732 49.1699 81.9336C49.1699 82.3893 49.4466 82.8451 50 83.3008C50.5859 83.724 51.1556 83.9355 51.709 83.9355C52.5553 83.9355 53.776 83.1868 55.3711 81.6895C56.9661 80.1921 58.6914 78.2878 60.5469 75.9766C62.4023 73.6328 64.1764 71.1914 65.8691 68.6523C67.5618 66.1133 68.9453 63.7533 70.0195 61.5723C71.0938 59.3587 71.6309 57.6823 71.6309 56.543C71.6309 55.8919 71.1426 55.013 70.166 53.9062C69.222 52.7669 68.0501 51.6113 66.6504 50.4395C65.2832 49.2676 63.916 48.291 62.5488 47.5098C61.1816 46.696 60.0911 46.2891 59.2773 46.2891C58.7565 46.2891 57.9427 46.582 56.8359 47.168C55.7292 47.7539 54.5573 48.3398 53.3203 48.9258C52.0833 49.4792 51.0091 49.7559 50.0977 49.7559C48.9583 49.7559 47.6074 49.3652 46.0449 48.584C44.515 47.7702 43.0176 46.7448 41.5527 45.5078C40.1204 44.2383 38.916 42.9199 37.9395 41.5527C36.9629 40.1855 36.4746 38.9486 36.4746 37.8418C36.4746 36.8001 36.8327 35.7747 37.5488 34.7656C38.265 33.7565 39.1602 32.9264 40.2344 32.2754C41.3086 31.5918 42.3991 31.25 43.5059 31.25C44.4173 31.25 45.5241 31.6406 46.8262 32.4219C48.1608 33.1706 49.4141 33.9193 50.5859 34.668C51.7904 35.4167 52.6693 35.791 53.2227 35.791C53.6458 35.791 53.9876 35.6608 54.248 35.4004C54.5085 35.14 54.6387 34.8145 54.6387 34.4238C54.6387 33.8704 54.4108 33.2357 53.9551 32.5195C53.4993 31.7708 52.7669 30.7129 51.7578 29.3457C51.2695 28.6621 51.123 28.0436 51.3184 27.4902C51.5137 26.9368 51.888 26.5137 52.4414 26.2207C53.8411 25.472 55.485 24.6094 57.373 23.6328C59.2936 22.6237 61.2142 21.5169 63.1348 20.3125C65.0553 19.1081 66.7643 17.806 68.2617 16.4062C69.7917 15.0065 70.8822 13.5417 71.5332 12.0117L75.9277 14.3066C75.179 15.9668 74.0723 17.5456 72.6074 19.043C71.1426 20.5404 69.515 21.9238 67.7246 23.1934C65.9342 24.4629 64.1602 25.6022 62.4023 26.6113C60.6445 27.5879 59.082 28.418 57.7148 29.1016C58.9518 30.8919 59.5703 32.4544 59.5703 33.7891C59.5703 35.9049 58.9518 37.5977 57.7148 38.8672C56.4779 40.1042 54.834 40.7227 52.7832 40.7227C51.8392 40.7227 50.7324 40.3483 49.4629 39.5996C48.1934 38.8509 46.9889 38.1022 45.8496 37.3535C44.7428 36.5723 43.9616 36.1816 43.5059 36.1816C43.0501 36.1816 42.5781 36.377 42.0898 36.7676C41.6341 37.1257 41.4062 37.4837 41.4062 37.8418C41.4062 38.2975 41.748 38.916 42.4316 39.6973C43.1152 40.4785 43.9453 41.2598 44.9219 42.041C45.8984 42.8223 46.8587 43.4896 47.8027 44.043C48.7793 44.5638 49.5443 44.8242 50.0977 44.8242C50.9115 44.8242 51.8555 44.5475 52.9297 43.9941C54.0039 43.4082 55.0944 42.8385 56.2012 42.2852C57.3079 41.6992 58.3333 41.4062 59.2773 41.4062C60.8073 41.4062 62.5488 41.9271 64.502 42.9688C66.4551 44.0104 68.3431 45.3288 70.166 46.9238C72.0215 48.5189 73.5514 50.179 74.7559 51.9043C75.9603 53.6296 76.5625 55.1758 76.5625 56.543C76.5625 58.3333 75.944 60.5794 74.707 63.2812C73.4701 65.9831 71.8587 68.8151 69.873 71.7773C67.9199 74.707 65.8203 77.474 63.5742 80.0781C61.3281 82.6823 59.1634 84.7982 57.0801 86.4258C54.9967 88.0534 53.2552 88.8672 51.8555 88.8672ZM49.8047 99.6094C42.9362 99.6094 36.4909 98.3073 30.4688 95.7031C24.4466 93.1315 19.1569 89.5671 14.5996 85.0098C10.0423 80.4525 6.46159 75.1628 3.85742 69.1406C1.28581 63.1185 0 56.6732 0 49.8047C0 42.9362 1.28581 36.4909 3.85742 30.4688C6.46159 24.4466 10.0423 19.1569 14.5996 14.5996C19.1569 10.0098 24.4466 6.42904 30.4688 3.85742C36.4909 1.28581 42.9362 0 49.8047 0C56.6732 0 63.1185 1.28581 69.1406 3.85742C75.1628 6.42904 80.4525 10.0098 85.0098 14.5996C89.5671 19.1569 93.1315 24.4466 95.7031 30.4688C98.3073 36.4909 99.6094 42.9362 99.6094 49.8047C99.6094 56.6732 98.3073 63.1185 95.7031 69.1406C93.1315 75.1628 89.5671 80.4525 85.0098 85.0098C80.4525 89.5671 75.1628 93.1315 69.1406 95.7031C63.1185 98.3073 56.6732 99.6094 49.8047 99.6094ZM49.8047 92.9688C55.7617 92.9688 61.3444 91.8457 66.5527 89.5996C71.7611 87.3535 76.3509 84.2611 80.3223 80.3223C84.2936 76.3509 87.3861 71.7611 89.5996 66.5527C91.8457 61.3444 92.9688 55.7617 92.9688 49.8047C92.9688 43.8477 91.8457 38.265 89.5996 33.0566C87.3861 27.8158 84.2936 23.2259 80.3223 19.2871C76.3509 15.3158 71.7611 12.2233 66.5527 10.0098C61.3444 7.76367 55.7617 6.64062 49.8047 6.64062C43.8477 6.64062 38.265 7.76367 33.0566 10.0098C27.8483 12.2233 23.2585 15.3158 19.2871 19.2871C15.3158 23.2259 12.207 27.8158 9.96094 33.0566C7.7474 38.265 6.64062 43.8477 6.64062 49.8047C6.64062 55.7617 7.7474 61.3444 9.96094 66.5527C12.207 71.7611 15.3158 76.3509 19.2871 80.3223C23.2585 84.2611 27.8483 87.3535 33.0566 89.5996C38.265 91.8457 43.8477 92.9688 49.8047 92.9688Z" fill="#D87779"/>
</svg>
